<svg width="1080" height="1080" viewBox="0 0 1080 1080" fill="none" xmlns="http://www.w3.org/2000/svg">
<path d="M1039.05 459C1016.92 459 998.564 477.36 998.564 499.5H915.44C907.343 425.52 878.196 357.48 833.396 302.4L892.23 243.54L892.77 244.08C908.423 259.74 934.332 259.74 949.985 244.08C965.638 228.42 965.638 202.5 949.985 186.84L892.77 129.6C877.117 113.94 851.208 113.94 835.555 129.6C819.902 145.26 819.902 170.64 835.015 186.3L776.181 245.16C721.125 200.88 653.654 171.72 579.707 163.62V81H580.246C602.377 81 620.729 62.64 620.729 40.5C620.729 18.36 602.377 0 580.246 0H499.282C477.151 0 458.799 18.36 458.799 40.5C458.799 62.64 476.612 80.46 498.742 81V164.7C424.794 172.26 357.324 201.96 302.268 246.24L243.434 187.38L243.973 186.84C259.627 171.18 259.627 145.26 243.973 129.6C228.32 113.94 202.412 113.94 186.758 129.6L129.543 186.84C113.89 202.5 113.89 228.42 129.543 244.08C145.197 259.74 170.565 259.74 186.219 244.62L245.053 303.48C200.792 358.56 171.645 425.52 164.088 499.5H80.9646C80.9646 477.36 62.6126 459 40.4823 459C18.352 459 0 477.36 0 499.5V580.5C0 602.64 18.352 621 40.4823 621C62.6126 621 80.9646 602.64 80.9646 580.5H164.088C172.185 654.48 201.332 721.44 245.053 776.52L186.219 835.38C170.565 819.72 145.197 820.26 129.543 835.92C113.89 851.58 113.89 877.5 129.543 893.16L186.758 950.4C202.412 966.06 228.32 966.06 243.973 950.4C259.627 934.74 259.627 908.82 243.973 893.16L243.434 892.62L302.268 833.76C357.324 878.04 424.255 907.2 498.202 915.3V999C476.072 999.54 458.26 1017.36 458.26 1039.5C458.26 1061.64 476.612 1080 498.742 1080H579.707C601.837 1080 620.189 1061.64 620.189 1039.5C620.189 1017.36 601.837 999 579.707 999H579.167V915.84C653.115 908.28 720.585 878.58 775.641 834.3L834.475 893.16C818.822 908.82 819.362 934.2 835.015 949.86C850.668 965.52 876.577 965.52 892.23 949.86L949.445 892.62C965.098 876.96 965.098 851.04 949.445 835.38C933.792 819.72 907.883 819.72 892.23 835.38L891.69 835.92L832.856 777.06C877.117 721.98 906.804 654.48 914.9 579.96H998.024C998.024 602.1 1016.38 620.46 1038.51 620.46C1060.64 620.46 1078.99 602.1 1078.99 579.96V498.96C1079.53 477.36 1061.18 459 1039.05 459ZM634.223 324C663.91 324 688.199 348.3 688.199 378C688.199 407.7 663.91 432 634.223 432C604.536 432 580.246 407.7 580.246 378C580.246 348.3 604.536 324 634.223 324ZM539.764 594C510.077 594 485.788 569.7 485.788 540C485.788 510.3 510.077 486 539.764 486C569.451 486 593.74 510.3 593.74 540C593.74 569.7 569.451 594 539.764 594ZM445.305 324C474.992 324 499.282 348.3 499.282 378C499.282 407.7 474.992 432 445.305 432C415.618 432 391.329 407.7 391.329 378C391.329 348.3 415.618 324 445.305 324ZM350.847 594C321.16 594 296.87 569.7 296.87 540C296.87 510.3 321.16 486 350.847 486C380.534 486 404.823 510.3 404.823 540C404.823 569.7 380.534 594 350.847 594ZM445.305 756C415.618 756 391.329 731.7 391.329 702C391.329 672.3 415.618 648 445.305 648C474.992 648 499.282 672.3 499.282 702C499.282 731.7 474.992 756 445.305 756ZM634.223 756C604.536 756 580.246 731.7 580.246 702C580.246 672.3 604.536 648 634.223 648C663.91 648 688.199 672.3 688.199 702C688.199 731.7 663.91 756 634.223 756ZM674.705 540C674.705 510.3 698.994 486 728.681 486C758.369 486 782.658 510.3 782.658 540C782.658 569.7 758.369 594 728.681 594C698.994 594 674.705 569.7 674.705 540Z" fill="white"/>
</svg>
