<svg width="1080" height="1080" viewBox="0 0 1080 1080" fill="none" xmlns="http://www.w3.org/2000/svg">
<g clip-path="url(#clip0)">
<path d="M1039.01 460C1016.86 460 998.489 478.36 998.489 500.5H915.288C907.184 426.52 878.01 358.48 833.168 303.4L892.057 244.54L892.597 245.08C908.265 260.74 934.198 260.74 949.865 245.08C965.533 229.42 965.533 203.5 949.865 187.84L892.597 130.6C876.93 114.94 850.997 114.94 835.329 130.6C819.661 146.26 819.661 171.64 834.789 187.3L775.9 246.16C720.793 201.88 653.26 172.72 579.244 164.62V82H579.784C601.935 82 620.304 63.64 620.304 41.5C620.304 19.36 601.935 1 579.784 1H498.745C476.594 1 458.225 19.36 458.225 41.5C458.225 63.64 476.053 81.46 498.204 82V165.7C424.188 173.26 356.655 202.96 301.548 247.24L242.659 188.38L243.199 187.84C258.867 172.18 258.867 146.26 243.199 130.6C227.532 114.94 201.599 114.94 185.931 130.6L128.663 187.84C112.996 203.5 112.996 229.42 128.663 245.08C144.331 260.74 169.724 260.74 185.391 245.62L244.28 304.48C199.978 359.56 170.804 426.52 163.24 500.5H80.0396C80.0396 478.36 61.6707 460 39.5198 460C17.369 460 -1 478.36 -1 500.5V581.5C-1 603.64 17.369 622 39.5198 622C61.6707 622 80.0396 603.64 80.0396 581.5H163.24C171.344 655.48 200.519 722.44 244.28 777.52L185.391 836.38C169.724 820.72 144.331 821.26 128.663 836.92C112.996 852.58 112.996 878.5 128.663 894.16L185.931 951.4C201.599 967.06 227.532 967.06 243.199 951.4C258.867 935.74 258.867 909.82 243.199 894.16L242.659 893.62L301.548 834.76C356.655 879.04 423.648 908.2 497.664 916.3V1000C475.513 1000.54 457.684 1018.36 457.684 1040.5C457.684 1062.64 476.053 1081 498.204 1081H579.244C601.395 1081 619.764 1062.64 619.764 1040.5C619.764 1018.36 601.395 1000 579.244 1000H578.704V916.84C652.72 909.28 720.253 879.58 775.36 835.3L834.249 894.16C818.581 909.82 819.121 935.2 834.789 950.86C850.457 966.52 876.389 966.52 892.057 950.86L949.325 893.62C964.993 877.96 964.993 852.04 949.325 836.38C933.657 820.72 907.725 820.72 892.057 836.38L891.517 836.92L832.628 778.06C876.93 722.98 906.644 655.48 914.748 580.96H997.949C997.949 603.1 1016.32 621.46 1038.47 621.46C1060.62 621.46 1078.99 603.1 1078.99 580.96V499.96C1079.53 478.36 1061.16 460 1039.01 460ZM633.811 325C663.525 325 687.837 349.3 687.837 379C687.837 408.7 663.525 433 633.811 433C604.096 433 579.784 408.7 579.784 379C579.784 349.3 604.096 325 633.811 325ZM539.264 595C509.55 595 485.238 570.7 485.238 541C485.238 511.3 509.55 487 539.264 487C568.979 487 593.291 511.3 593.291 541C593.291 570.7 568.979 595 539.264 595ZM444.718 325C474.433 325 498.745 349.3 498.745 379C498.745 408.7 474.433 433 444.718 433C415.004 433 390.692 408.7 390.692 379C390.692 349.3 415.004 325 444.718 325ZM350.172 595C320.457 595 296.145 570.7 296.145 541C296.145 511.3 320.457 487 350.172 487C379.886 487 404.198 511.3 404.198 541C404.198 570.7 379.886 595 350.172 595ZM444.718 757C415.004 757 390.692 732.7 390.692 703C390.692 673.3 415.004 649 444.718 649C474.433 649 498.745 673.3 498.745 703C498.745 732.7 474.433 757 444.718 757ZM633.811 757C604.096 757 579.784 732.7 579.784 703C579.784 673.3 604.096 649 633.811 649C663.525 649 687.837 673.3 687.837 703C687.837 732.7 663.525 757 633.811 757ZM674.33 541C674.33 511.3 698.642 487 728.357 487C758.071 487 782.383 511.3 782.383 541C782.383 570.7 758.071 595 728.357 595C698.642 595 674.33 570.7 674.33 541Z" fill="url(#paint0_linear)"/>
</g>
<defs>
<linearGradient id="paint0_linear" x1="539" y1="1" x2="539" y2="1081" gradientUnits="userSpaceOnUse">
<stop stop-color="#0199EE"/>
<stop offset="1" stop-color="#01E5BB"/>
</linearGradient>
<clipPath id="clip0">
<rect width="1080" height="1080" fill="white"/>
</clipPath>
</defs>
</svg>
