<svg width="1080" height="1080" viewBox="0 0 1080 1080" fill="none" xmlns="http://www.w3.org/2000/svg">
<path d="M945 216C874.26 216 817.02 270.54 811.08 340.2C709.56 313.2 657.72 243 540 243C421.74 243 370.44 313.2 268.92 340.2C262.98 271.08 205.74 216 135 216C60.48 216 0 276.48 0 351V378C0 702 194.4 799.74 352.08 808.92C406.62 843.48 470.88 864 540 864C609.12 864 673.38 843.48 727.92 808.92C885.6 799.74 1080 702 1080 378V351C1080 276.48 1019.52 216 945 216ZM81 378V351C81 321.3 105.3 297 135 297C164.7 297 189 321.3 189 351V513C189 582.12 209.52 646.38 243.54 700.92C161.46 662.58 81 575.1 81 378ZM999 378C999 575.1 918.54 662.58 836.46 700.92C871.02 646.38 891 582.12 891 513V351C891 321.3 915.3 297 945 297C974.7 297 999 321.3 999 351V378ZM469.26 457.92C445.5 471.96 417.42 488.16 378 498.96V442.8C403.92 433.62 423.36 422.28 441.72 411.48C470.88 394.2 498.42 378 540 378C581.58 378 608.58 394.2 637.2 411.48C655.56 422.28 675.54 434.16 702 443.34V499.5C661.5 488.16 633.96 471.96 609.66 457.38C584.82 442.8 566.46 432 540 432C513.54 432 494.64 442.8 469.26 457.92Z" fill="url(#paint0_linear)"/>
<defs>
<linearGradient id="paint0_linear" x1="0" y1="216" x2="1080" y2="864" gradientUnits="userSpaceOnUse">
<stop stop-color="#0098EE"/>
<stop offset="1" stop-color="#00EEB5"/>
</linearGradient>
</defs>
</svg>
