<svg width="1080" height="470" viewBox="0 0 1080 470" fill="none" xmlns="http://www.w3.org/2000/svg">
<g clip-path="url(#clip0)">
<path d="M236.389 445.739C233.082 445.876 229.775 445.941 226.47 445.931C202.348 445.863 178.315 441.892 155.361 434.199C132.673 426.596 111.06 415.368 91.4778 400.692C72.5741 386.524 55.5476 369.145 41.2561 348.714C5.50444 297.604 -6.42258 237.001 3.19516 180.336C12.8309 123.565 44.08 70.7577 94.6588 35.3626L94.6953 35.3367C109.939 24.6736 125.987 16.0137 142.931 9.9633C159.915 3.89851 177.765 0.46848 196.565 0.285409L196.647 0.285571C222.922 -1.11783 249.389 2.66501 274.502 11.3327C276.259 11.9438 277.054 13.8674 276.277 15.6289C275.501 17.3904 273.446 18.323 271.689 17.7118C247.394 9.32615 221.807 5.66655 196.427 7.0254C196.291 7.04025 196.159 7.04568 196.023 7.04729C191.126 7.31971 186.238 7.778 181.368 8.42644C152.318 12.2946 123.916 22.9069 98.4576 40.7152L98.4165 40.7444C54.5296 71.4604 27.7207 117.786 19.854 167.861C11.9602 218.107 23.1206 272.12 55.2061 317.989C70.115 339.302 88.2234 356.974 108.345 370.77C129.233 385.092 152.273 395.239 176.142 400.95C200.2 406.706 225.287 407.985 249.775 404.426C252.993 404.528 255.088 409.412 252.12 410.817C200.329 418.821 147.22 406.02 104.015 376.396C83.3004 362.193 64.6663 344.012 49.3353 322.095C16.3053 274.876 4.82578 219.213 12.9673 167.39C13.0946 166.58 13.2266 165.771 13.3633 164.963C12.0603 170.23 10.9509 175.545 10.0426 180.896C0.700798 235.935 12.3242 294.854 47.1269 344.607C61.0555 364.52 77.6321 381.444 96.0235 395.228C115.089 409.517 136.089 420.434 158.098 427.81C183.282 436.25 209.701 440.026 235.967 439.016C242.215 438.776 244.481 445.401 236.389 445.739ZM304.448 451.472C305.591 451.034 306.809 451.552 307.168 452.629C307.527 453.707 306.891 454.936 305.747 455.374C290.162 461.315 274.093 465.409 257.85 467.699C241.359 470.024 224.675 470.489 208.126 469.14C206.945 469.043 206.147 468.025 206.344 466.867C206.541 465.708 207.659 464.847 208.841 464.944C225.051 466.265 241.403 465.808 257.579 463.528C273.486 461.285 289.211 457.28 304.448 451.472ZM21.7529 352.966C18.9885 354.899 15.7139 355.531 12.6542 354.988C9.70169 354.464 6.96549 352.84 5.14604 350.239C3.32655 347.638 2.73889 344.511 3.25955 341.558C3.79901 338.498 5.51504 335.638 8.2794 333.704C11.0437 331.77 14.3186 331.139 17.378 331.682C20.3306 332.205 23.0667 333.83 24.8862 336.431C26.7056 339.032 27.2934 342.159 26.7727 345.112C26.2332 348.172 24.5173 351.032 21.7529 352.966ZM14.4378 348.358C15.6453 348.573 16.9251 348.332 17.9906 347.587C19.0561 346.842 19.7206 345.722 19.9335 344.514C20.1653 343.199 19.8776 341.77 19.0154 340.537C18.1533 339.305 16.9089 338.544 15.5945 338.311C14.3871 338.097 13.1072 338.337 12.0417 339.083C10.9762 339.828 10.3117 340.948 10.0987 342.155C9.86695 343.47 10.1546 344.9 11.0168 346.132C11.879 347.365 13.1233 348.125 14.4378 348.358ZM143.066 446.742C144.167 447.111 144.676 448.304 144.204 449.407C143.732 450.51 142.456 451.104 141.355 450.735C118.794 443.174 97.2964 432.005 77.8113 417.401C59.0038 403.305 42.0616 386.012 27.838 365.678C27.1887 364.75 27.4837 363.423 28.4969 362.714C29.5102 362.005 30.858 362.183 31.5073 363.111C45.5039 383.121 62.165 400.13 80.6524 413.986C99.8146 428.348 120.93 439.323 143.066 446.742ZM170.371 380.095C172.559 380.618 174.762 381.111 176.973 381.561L178.939 374.934C176.8 374.495 174.672 374.023 172.554 373.516L170.371 380.095ZM197.648 384.717C199.976 384.948 202.303 385.143 204.643 385.3L205.682 378.549C203.422 378.398 201.174 378.208 198.926 377.985L197.648 384.717ZM225.831 385.59C228.195 385.497 230.562 385.365 232.929 385.188L232.961 378.441C230.679 378.612 228.398 378.739 226.119 378.829L225.831 385.59ZM127.025 355.42C123.555 354.792 121.13 352.142 120.015 348.368C119.082 345.209 119.068 341.162 120.187 336.959L120.185 336.959L120.23 336.802C121.392 332.541 123.533 328.818 126.054 326.245C129.025 323.212 132.595 321.65 136.061 322.278C139.531 322.907 141.956 325.556 143.071 329.331C144.004 332.49 144.018 336.536 142.898 340.74L142.901 340.74L142.856 340.897C141.694 345.158 139.553 348.88 137.032 351.454C134.106 354.44 130.599 356 127.184 355.448L127.183 355.451L127.025 355.42ZM126.713 346.029C127.007 347.025 127.665 348.569 128.832 348.775C129.758 348.943 130.973 348.259 132.188 347.019C133.825 345.348 135.251 342.828 136.091 339.841C136.81 337.311 137.129 334.228 136.373 331.669C135.918 330.128 135.175 329.09 134.254 328.923C133.328 328.755 132.113 329.439 130.897 330.679C129.261 332.35 127.835 334.871 126.995 337.858C126.276 340.387 125.958 343.471 126.713 346.029ZM360.039 53.2188C359.152 52.5059 359.089 51.1795 359.899 50.2564C360.709 49.3334 362.086 49.1629 362.973 49.8758C378.851 62.6263 392.867 77.6788 404.537 94.3625C405.186 95.2907 404.892 96.6178 403.878 97.3266C402.865 98.0354 401.517 97.8574 400.868 96.9291C395.004 88.5463 388.674 80.748 381.946 73.5467C375.071 66.1865 367.743 59.4052 360.039 53.2188ZM333.396 34.5877C330.148 38.6986 325.069 40.7911 319.483 40.8509C314.335 40.9058 308.693 39.1971 303.778 35.7117C298.882 32.2394 295.571 27.5953 294.174 22.894C292.659 17.7919 293.347 12.5798 296.597 8.46751C299.845 4.35659 304.924 2.26413 310.51 2.20453C315.658 2.14951 321.3 3.85822 326.215 7.34354L326.664 7.66914C331.313 11.1032 334.465 15.6054 335.818 20.1613C337.334 25.2634 336.646 30.4755 333.396 34.5877ZM319.979 34.0895C323.341 34.0536 326.285 32.9374 328.013 30.7496C329.741 28.5633 330.043 25.5785 329.135 22.5207C328.108 19.062 325.583 15.5822 321.803 12.9015L321.798 12.8979C318.038 10.2329 313.81 8.92516 310.014 8.96583C306.652 9.00169 303.708 10.118 301.979 12.3057C300.252 14.492 299.95 17.4768 300.858 20.5347C301.885 23.9933 304.41 27.4731 308.19 30.1538C311.951 32.8213 316.181 34.1301 319.979 34.0895ZM417.942 141.644C414.917 143.76 411.109 143.886 407.397 142.38C404.256 141.105 401.11 138.595 398.703 135.154C396.295 131.712 395.016 127.896 394.896 124.508C394.753 120.505 396.178 116.971 399.203 114.855C402.228 112.739 406.037 112.612 409.748 114.119C412.889 115.394 416.035 117.904 418.443 121.345C420.85 124.787 422.129 128.603 422.249 131.99C422.392 135.994 420.967 139.528 417.942 141.644ZM410.532 136.119C412.04 136.731 413.375 136.829 414.18 136.266C414.985 135.703 415.351 134.415 415.293 132.788C415.214 130.545 414.3 127.922 412.572 125.452C410.844 122.981 408.693 121.224 406.614 120.38C405.105 119.767 403.77 119.67 402.965 120.233C402.16 120.796 401.794 122.084 401.852 123.711C401.932 125.954 402.845 128.576 404.573 131.047C406.301 133.518 408.452 135.275 410.532 136.119ZM369.8 127.922C367.036 129.855 363.761 130.486 360.701 129.944C357.749 129.42 355.012 127.796 353.193 125.195C351.374 122.594 350.786 119.466 351.307 116.513C351.846 113.453 353.562 110.594 356.326 108.66C359.091 106.726 362.366 106.095 365.425 106.638C368.378 107.161 371.114 108.785 372.933 111.387C374.753 113.988 375.34 117.115 374.82 120.068C374.28 123.128 372.564 125.988 369.8 127.922ZM362.485 123.314C363.692 123.529 364.972 123.288 366.038 122.543C367.103 121.798 367.768 120.678 367.981 119.47C368.212 118.155 367.925 116.726 367.062 115.493C366.2 114.261 364.956 113.5 363.641 113.267C362.434 113.053 361.154 113.293 360.089 114.039C359.023 114.784 358.359 115.904 358.146 117.111C357.914 118.426 358.202 119.856 359.064 121.088C359.926 122.321 361.17 123.081 362.485 123.314ZM280.602 51.1232C281.784 49.6229 281.78 47.6203 281.259 45.8643C280.549 43.4754 278.789 41.0606 276.147 39.1867C273.523 37.3255 270.587 36.4124 267.962 36.4404C265.773 36.4639 263.881 37.1594 262.805 38.5213L262.803 38.5237C261.729 39.8842 261.557 41.7934 262.148 43.7804C262.857 46.1692 264.617 48.5839 267.259 50.4579C269.883 52.3191 272.819 53.2323 275.445 53.2043C277.633 53.1809 279.525 52.4853 280.602 51.1232ZM285.578 55.4492C282.978 58.4118 279.137 59.9209 274.949 59.9656C271.031 60.0074 266.752 58.733 263.015 56.1332L262.545 55.8997L262.395 55.6854C258.885 53.0584 256.499 49.6232 255.465 46.1397C254.267 42.1074 254.825 37.9698 257.422 34.6832L257.829 34.1954C260.428 31.2328 264.269 29.7239 268.458 29.6791C272.434 29.6367 276.781 30.9497 280.558 33.6285C284.317 36.2941 286.863 39.8735 287.942 43.505C289.14 47.5372 288.582 51.6747 285.985 54.9613L285.578 55.4492ZM177.464 359.347C179.243 359.908 180.096 361.806 179.369 363.584C178.642 365.363 176.611 366.35 174.832 365.788C171.763 364.829 168.478 363.669 165.022 362.315C161.753 361.034 158.292 359.556 154.676 357.883C153.003 357.109 152.406 355.11 153.344 353.417C154.282 351.724 156.399 350.979 158.072 351.753C161.466 353.322 164.813 354.748 168.067 356.024C171.346 357.309 174.493 358.418 177.464 359.347ZM105.755 317.718C107.113 318.919 107.118 321.046 105.764 322.468C104.41 323.89 102.212 324.069 100.853 322.868C90.7697 313.969 81.5109 304.028 73.7941 292.997C66.0192 281.882 60.8374 271.192 57.82 261.109C56.923 258.112 56.2192 255.17 55.6966 252.287C57.8823 253.051 60.4159 252.905 62.7099 251.501C63.1711 253.871 63.7664 256.288 64.5031 258.75C67.3253 268.18 72.24 278.275 79.6649 288.89C83.2838 294.063 87.2479 298.982 91.4637 303.639C96.0032 308.652 100.803 313.348 105.755 317.718ZM86.0741 186.592C86.2686 186.485 86.4635 186.379 86.6592 186.274C86.7081 186.457 86.7742 186.663 86.837 186.865C86.5877 186.762 86.3333 186.67 86.0741 186.592ZM44.6127 149.758C48.7127 131.13 55.8188 113.248 65.8061 96.9168C77.5483 77.7162 93.263 60.6522 112.746 47.0237C126.603 37.3309 141.47 30.019 156.879 24.998C172.771 19.8192 189.208 17.1017 205.674 16.7439C207.587 16.7016 209.046 18.175 208.932 20.0345C208.818 21.8941 207.175 23.436 205.262 23.4783C189.504 23.8206 173.785 26.4175 158.601 31.3657C143.955 36.1382 129.777 43.1207 116.508 52.4022C97.9206 65.4044 82.9274 81.6853 71.7237 100.005C62.0595 115.808 55.2082 133.124 51.2937 151.161C50.8182 151.023 50.4867 150.977 50.3558 150.923C50.1824 150.852 49.5767 150.452 48.9066 150.195C47.5405 149.671 46.0561 149.523 44.6127 149.758ZM80.991 169.719C81.8461 169.374 82.7002 169.027 83.5545 168.68C83.5872 168.995 83.5641 169.295 83.5469 169.646C83.0888 169.644 82.6487 169.659 82.2922 169.708L80.991 169.719ZM333.141 51.6894C331.721 50.5488 331.62 48.4265 332.917 46.9495C334.213 45.4726 336.415 45.1998 337.836 46.3404C353.782 59.1462 367.899 74.304 379.62 91.0602C380.659 92.5454 380.187 94.6687 378.566 95.8027C376.945 96.9367 374.788 96.652 373.749 95.1667C367.904 86.8101 361.609 79.0527 354.932 71.9052C348.102 64.5943 340.813 57.8502 333.141 51.6894ZM387.781 369.998C390.125 365.104 391.584 359.937 392.189 354.714C392.787 349.547 392.547 344.324 391.499 339.254C389.365 340.148 386.931 341.267 384.141 342.658C382.523 343.47 380.553 342.817 379.741 341.199C378.929 339.581 379.583 337.611 381.2 336.799C390.296 332.263 396.147 330.362 400.25 329.762C404.839 329.09 407.311 329.939 409.514 330.743C410.895 331.247 412.171 331.935 413.446 332.622C415.183 333.557 416.916 334.491 417.429 334.399C417.5 334.367 417.572 334.338 417.645 334.311C418.558 333.871 419.233 333.108 419.591 332.215C419.97 331.269 419.994 330.187 419.571 329.198L410.691 308.43C410.654 308.353 410.619 308.274 410.587 308.192C410.152 307.25 409.376 306.555 408.464 306.189C407.551 305.823 406.511 305.788 405.55 306.167C405.506 306.188 405.461 306.208 405.415 306.227C404.989 306.494 404.459 308.42 403.928 310.35C403.542 311.751 403.156 313.154 402.569 314.494C401.629 316.642 400.535 319.017 396.877 321.871C393.611 324.42 388.197 327.335 378.634 330.777C376.93 331.391 375.05 330.506 374.436 328.801C373.822 327.096 374.707 325.216 376.412 324.603C379.361 323.541 381.863 322.55 383.992 321.62C382.796 319.881 381.474 318.204 380.027 316.602C377.952 314.305 375.634 312.178 373.078 310.263C370.63 308.428 368.081 306.866 365.464 305.571C363.452 304.574 361.369 303.725 359.234 303.022C358.94 305.321 358.692 307.994 358.502 311.114C358.391 312.919 356.837 314.293 355.032 314.182C353.226 314.072 351.852 312.518 351.963 310.712C352.582 300.57 353.861 294.553 355.393 290.699C357.113 286.371 359.075 284.661 360.864 283.163C361.924 282.276 363.193 281.492 364.46 280.71C366.124 279.683 367.784 278.658 367.994 278.161C368.003 278.076 368.014 277.99 368.03 277.904L368.033 277.905C368.106 276.898 367.781 275.935 367.186 275.177C366.599 274.43 365.754 273.891 364.773 273.717C364.642 273.71 364.51 273.695 364.378 273.672L364.379 273.664L342.279 271.009C342.122 271.004 341.964 270.989 341.805 270.96L341.805 270.957C340.799 270.884 339.835 271.208 339.078 271.804C338.33 272.391 337.791 273.237 337.618 274.217C337.613 274.313 337.603 274.41 337.589 274.507C337.675 275.038 339.047 276.429 340.421 277.823C341.437 278.852 342.453 279.882 343.326 281.068C344.721 282.963 346.235 285.104 346.875 289.673C347.446 293.753 347.26 299.895 345.453 309.93C345.134 311.709 343.432 312.892 341.654 312.573C339.875 312.253 338.692 310.552 339.011 308.773C339.566 305.693 339.957 303.033 340.214 300.725C335.004 301.135 329.87 302.381 325.031 304.431C320.235 306.462 315.729 309.28 311.724 312.854C313.57 314.26 315.764 315.814 318.374 317.542C319.88 318.545 320.287 320.579 319.283 322.085C318.28 323.59 316.246 323.997 314.741 322.994C306.261 317.382 301.69 313.267 299.121 310.018C296.261 306.4 295.759 303.829 295.354 301.514C295.095 300.039 295.053 298.605 295.01 297.172C294.952 295.193 294.893 293.218 294.549 292.822C294.493 292.782 294.439 292.74 294.387 292.696C293.548 292.116 292.546 291.909 291.592 292.046C290.587 292.19 289.636 292.715 288.982 293.587C284.587 299.696 279.87 305.746 275.347 311.781C274.701 312.644 274.466 313.697 274.61 314.698C274.754 315.703 275.28 316.654 276.152 317.308C276.514 317.58 278.497 317.063 280.483 316.545C281.866 316.185 283.25 315.824 284.753 315.657C287.086 315.397 289.692 315.157 293.983 316.893C297.818 318.445 303.05 321.678 310.822 328.247C312.202 329.417 312.372 331.483 311.203 332.862C310.034 334.242 307.968 334.412 306.588 333.243C304.192 331.217 302.079 329.545 300.207 328.166C297.892 332.985 296.43 338.08 295.802 343.237C295.163 348.489 295.395 353.791 296.477 358.92C298.615 358.025 301.055 356.904 303.851 355.509C305.469 354.697 307.439 355.35 308.251 356.968C309.064 358.586 308.41 360.556 306.792 361.368C297.697 365.904 291.846 367.805 287.742 368.406C283.154 369.077 280.681 368.228 278.479 367.424C277.098 366.92 275.821 366.232 274.546 365.545C272.74 364.572 270.937 363.601 270.507 363.784C269.513 364.209 268.78 365.008 268.402 365.953C268.022 366.898 267.999 367.98 268.421 368.969C271.4 375.935 274.415 382.894 277.36 389.873C277.785 390.867 278.584 391.599 279.528 391.978C280.472 392.357 281.552 392.381 282.539 391.96L282.544 391.958C282.976 391.774 283.52 389.797 284.065 387.817C284.451 386.416 284.837 385.013 285.424 383.673C286.364 381.525 287.458 379.151 291.115 376.296C294.381 373.747 299.796 370.832 309.358 367.39C311.063 366.777 312.943 367.661 313.556 369.366C314.17 371.071 313.285 372.951 311.581 373.564C308.647 374.62 306.156 375.607 304.035 376.532C305.243 378.253 306.559 379.926 307.996 381.533C310.06 383.842 312.356 385.987 314.915 387.904C317.38 389.752 319.969 391.331 322.645 392.647C324.637 393.627 326.68 394.459 328.758 395.146C329.052 392.847 329.301 390.173 329.491 387.053C329.602 385.248 331.156 383.874 332.961 383.985C334.767 384.095 336.141 385.649 336.03 387.455C335.411 397.597 334.131 403.614 332.6 407.468C330.88 411.796 328.918 413.506 327.129 415.004C326.069 415.892 324.8 416.675 323.533 417.457C321.782 418.538 320.034 419.617 319.977 420.08C319.848 421.152 320.175 422.187 320.806 422.99C321.435 423.791 322.362 424.353 323.433 424.481L345.714 427.158C345.871 427.163 346.029 427.179 346.188 427.207L346.187 427.21C347.194 427.283 348.157 426.959 348.915 426.363C349.662 425.777 350.2 424.932 350.374 423.952C350.379 423.854 350.389 423.756 350.403 423.659C350.316 423.127 348.945 421.737 347.571 420.344C346.556 419.316 345.54 418.286 344.667 417.1C343.272 415.205 341.757 413.063 341.118 408.494C340.546 404.414 340.733 398.272 342.539 388.237C342.859 386.458 344.56 385.275 346.339 385.595C348.118 385.914 349.301 387.615 348.981 389.394C348.427 392.476 348.035 395.137 347.778 397.446C353.166 397.023 358.467 395.709 363.439 393.539C368.052 391.527 372.392 388.776 376.269 385.314C374.423 383.907 372.229 382.353 369.618 380.625C368.113 379.622 367.706 377.588 368.709 376.082C369.713 374.577 371.746 374.17 373.252 375.173C381.732 380.785 386.303 384.9 388.872 388.149C391.732 391.767 392.233 394.338 392.639 396.653C392.898 398.128 392.94 399.563 392.982 400.996C393.041 402.974 393.099 404.948 393.444 405.345C393.499 405.385 393.553 405.428 393.606 405.472C394.445 406.051 395.446 406.258 396.401 406.121C397.357 405.984 398.263 405.502 398.912 404.705C398.98 404.605 399.054 404.508 399.134 404.415L412.646 386.386C413.292 385.523 413.526 384.47 413.383 383.469C413.246 382.513 412.764 381.607 411.967 380.958C411.909 380.918 411.851 380.876 411.795 380.832C411.336 380.624 409.425 381.122 407.509 381.622C406.127 381.982 404.743 382.343 403.24 382.51C400.907 382.77 398.301 383.01 394.009 381.274C390.174 379.722 384.943 376.489 377.17 369.92C375.791 368.75 375.62 366.684 376.789 365.305C377.959 363.925 380.025 363.755 381.404 364.924C383.799 366.948 385.91 368.62 387.781 369.998ZM398.685 355.458C397.966 361.678 396.176 367.832 393.277 373.636C394.472 374.317 395.524 374.828 396.463 375.208C399.261 376.34 400.975 376.182 402.511 376.011C403.39 375.913 404.622 375.592 405.852 375.271C409.364 374.356 412.869 373.442 415.785 375.627L415.787 375.629C418.093 377.358 419.482 379.874 419.863 382.534C420.245 385.199 419.614 388.013 417.877 390.33C413.344 396.379 408.855 402.549 404.241 408.525C402.512 410.831 399.996 412.22 397.336 412.601C394.754 412.971 392.033 412.39 389.759 410.774C389.603 410.676 389.455 410.564 389.316 410.439C386.638 408.252 386.533 404.729 386.429 401.199C386.391 399.933 386.354 398.665 386.199 397.779C385.932 396.26 385.603 394.573 383.72 392.191C383.092 391.397 382.304 390.529 381.312 389.572C376.746 393.79 371.578 397.12 366.063 399.527C360.123 402.119 353.79 403.636 347.379 404.033C347.388 405.407 347.472 406.575 347.613 407.58C348.033 410.585 349.024 411.987 349.936 413.226C350.484 413.97 351.367 414.865 352.248 415.758C354.792 418.337 357.33 420.91 356.897 424.516L356.873 424.696L356.883 424.697C356.873 424.754 356.861 424.811 356.848 424.867C356.429 427.59 354.982 429.924 352.957 431.515C350.847 433.172 348.101 434.028 345.227 433.683L345.047 433.662L345.045 433.669L344.939 433.649L322.654 430.972C319.78 430.627 317.313 429.143 315.654 427.032C314.066 425.01 313.214 422.404 313.45 419.66C313.452 419.4 313.486 419.141 313.549 418.889C314.159 415.55 317.116 413.723 320.079 411.894C321.11 411.258 322.141 410.621 322.919 409.97C324.114 408.969 325.424 407.829 326.528 405.05C326.902 404.11 327.259 402.994 327.592 401.657C324.931 400.826 322.307 399.782 319.747 398.523C316.717 397.034 313.778 395.24 310.97 393.135C308.045 390.943 305.434 388.506 303.1 385.896C301.285 383.866 299.628 381.715 298.113 379.478C296.915 380.177 295.938 380.837 295.136 381.463C292.764 383.314 292.042 384.881 291.422 386.298C291.047 387.154 290.716 388.358 290.385 389.56C289.451 392.954 288.518 396.34 285.418 397.842C285.234 397.943 285.043 398.026 284.849 398.089C282.263 399.11 279.496 399.029 277.09 398.065C274.676 397.097 272.616 395.238 271.455 392.708C271.372 392.552 271.302 392.391 271.246 392.227L262.405 371.55C261.265 368.886 261.316 366.006 262.315 363.514C263.283 361.101 265.141 359.04 267.672 357.88C267.857 357.78 268.049 357.701 268.245 357.64C271.467 356.45 274.553 358.112 277.647 359.778C278.749 360.372 279.853 360.967 280.724 361.285C282.177 361.816 283.808 362.376 286.787 361.94C287.791 361.793 288.94 361.543 290.27 361.161C288.868 355.039 288.535 348.699 289.297 342.437C290.042 336.318 291.838 330.256 294.71 324.528C293.517 323.849 292.467 323.338 291.53 322.959C288.732 321.827 287.017 321.985 285.482 322.156C284.603 322.254 283.371 322.575 282.141 322.896C278.629 323.811 275.124 324.725 272.208 322.54C269.901 320.811 268.511 318.294 268.129 315.633C267.748 312.968 268.379 310.154 270.116 307.837L283.75 289.644C285.479 287.337 287.996 285.947 290.657 285.566C293.322 285.184 296.135 285.815 298.452 287.552C301.35 289.724 301.457 293.342 301.564 296.968C301.601 298.235 301.639 299.502 301.794 300.388C302.06 301.907 302.39 303.594 304.273 305.976C304.901 306.77 305.688 307.638 306.68 308.595C311.402 304.231 316.758 300.819 322.47 298.399C328.247 295.952 334.39 294.516 340.613 294.13C340.604 292.758 340.521 291.591 340.38 290.587C339.959 287.582 338.969 286.181 338.056 284.941C337.508 284.197 336.626 283.302 335.744 282.409C333.201 279.83 330.663 277.257 331.096 273.652L331.119 273.472L331.11 273.47C331.12 273.412 331.131 273.356 331.144 273.3C331.564 270.577 333.011 268.242 335.036 266.652C337.145 264.995 339.892 264.139 342.766 264.484L342.946 264.505L342.947 264.498L343.054 264.518C350.534 265.417 358.052 266.249 365.519 267.219L365.52 267.209C365.578 267.219 365.634 267.231 365.69 267.244C368.413 267.663 370.747 269.11 372.338 271.135C373.926 273.157 374.778 275.764 374.543 278.507C374.54 278.767 374.507 279.026 374.443 279.278C373.834 282.617 370.877 284.444 367.913 286.273C366.883 286.909 365.852 287.546 365.074 288.197C363.879 289.198 362.569 290.338 361.464 293.117C361.091 294.057 360.734 295.172 360.401 296.509C363.088 297.35 365.755 298.417 368.378 299.715C371.378 301.201 374.273 302.971 377.022 305.032C379.937 307.216 382.567 309.626 384.908 312.218C386.747 314.253 388.415 316.412 389.91 318.671C391.095 317.979 392.061 317.325 392.857 316.704C395.229 314.853 395.95 313.287 396.571 311.869C396.945 311.014 397.277 309.809 397.608 308.607C398.542 305.213 399.475 301.826 402.576 300.325C402.759 300.223 402.95 300.141 403.144 300.078C405.73 299.058 408.497 299.138 410.903 300.103C413.396 301.102 415.512 303.053 416.65 305.712L425.588 326.617C426.727 329.281 426.677 332.161 425.678 334.653C424.678 337.146 422.727 339.263 420.068 340.4L419.982 340.435C416.676 341.797 413.514 340.095 410.346 338.389C409.244 337.795 408.14 337.2 407.269 336.882C405.815 336.351 404.185 335.791 401.206 336.227C400.199 336.375 399.046 336.625 397.711 337.01C399.062 343.036 399.401 349.278 398.685 355.458Z" fill="url(#paint0_linear)"/>
<path d="M240.132 241.666C236.71 244.518 232.825 246.977 228.476 249.045C224.128 251.112 219.565 252.823 214.789 254.177C210.083 255.532 205.271 256.53 200.352 257.172C195.433 257.884 190.728 258.241 186.237 258.241C175.401 258.241 165.385 256.459 156.188 252.894C146.992 249.258 139.007 244.125 132.235 237.496C125.462 230.866 120.151 222.881 116.301 213.542C112.523 204.203 110.634 193.759 110.634 182.21C110.634 173.156 111.774 164.78 114.056 157.08C116.408 149.381 119.616 142.395 123.68 136.121C127.815 129.848 132.698 124.287 138.33 119.439C143.962 114.592 150.093 110.528 156.723 107.249C163.353 103.969 170.339 101.51 177.682 99.8701C185.096 98.1592 192.617 97.3037 200.245 97.3037C202.669 97.3037 205.485 97.4106 208.693 97.6245C211.973 97.7671 215.394 98.0522 218.959 98.48C222.595 98.9077 226.302 99.478 230.08 100.191C233.859 100.904 237.566 101.759 241.201 102.757L235.641 127.994L233.502 128.85C226.943 125.713 220.706 123.574 214.789 122.433C208.871 121.221 203.632 120.616 199.069 120.616C191.655 120.616 184.918 121.97 178.858 124.679C172.799 127.317 167.595 131.06 163.246 135.907C158.897 140.755 155.511 146.565 153.087 153.338C150.734 160.11 149.558 167.631 149.558 175.901C149.558 184.313 150.77 192.048 153.194 199.106C155.689 206.092 159.289 212.152 163.994 217.285C168.7 222.346 174.438 226.303 181.211 229.155C188.055 231.935 195.825 233.325 204.523 233.325C211.224 233.325 217.462 232.541 223.236 230.972C229.082 229.404 234.714 227.265 240.132 224.556V241.666Z" fill="url(#paint1_linear)"/>
<path d="M309.084 243.398C313.062 243.398 316.612 242.479 319.735 240.639C322.857 238.8 325.488 236.341 327.626 233.261C329.765 230.138 331.39 226.545 332.503 222.482C333.615 218.376 334.171 214.098 334.171 209.65C334.171 204.859 333.551 200.368 332.31 196.176C331.07 191.941 329.295 188.241 326.985 185.076C324.718 181.911 321.959 179.408 318.708 177.569C315.5 175.73 311.928 174.81 307.993 174.81C304.015 174.81 300.465 175.751 297.342 177.633C294.263 179.473 291.653 181.953 289.515 185.076C287.419 188.156 285.815 191.749 284.703 195.855C283.591 199.919 283.034 204.175 283.034 208.623C283.034 213.414 283.655 217.926 284.895 222.161C286.136 226.353 287.889 230.031 290.156 233.197C292.423 236.319 295.161 238.8 298.369 240.639C301.577 242.479 305.149 243.398 309.084 243.398ZM306.902 257.385C300.187 257.385 293.942 256.359 288.167 254.306C282.436 252.21 277.452 249.194 273.218 245.259C268.983 241.281 265.647 236.426 263.209 230.694C260.813 224.963 259.616 218.44 259.616 211.125C259.616 203.64 260.878 196.817 263.401 190.658C265.968 184.456 269.496 179.152 273.988 174.746C278.522 170.34 283.869 166.918 290.028 164.48C296.23 162.042 302.989 160.823 310.303 160.823C316.976 160.823 323.178 161.85 328.91 163.903C334.684 165.956 339.689 168.972 343.923 172.95C348.158 176.885 351.473 181.718 353.868 187.45C356.306 193.182 357.525 199.705 357.525 207.019C357.525 212.024 356.948 216.75 355.793 221.199C354.638 225.604 352.991 229.689 350.853 233.453C348.757 237.175 346.19 240.511 343.153 243.462C340.116 246.414 336.716 248.938 332.952 251.033C329.23 253.087 325.167 254.669 320.761 255.781C316.398 256.851 311.779 257.385 306.902 257.385Z" fill="url(#paint2_linear)"/>
<path d="M433.941 162.106H453.125L422.392 256.102H396.343L365.738 162.106H389.863L408.084 225.305L411.292 238.843H412.576L415.784 225.305L433.941 162.106Z" fill="url(#paint3_linear)"/>
<path d="M490.531 256.102H467.882V162.106H490.531V256.102Z" fill="url(#paint4_linear)"/>
<path d="M513.95 162.106H550.778C559.034 162.106 566.305 163.154 572.593 165.25C578.924 167.346 584.228 170.319 588.505 174.169C592.825 177.975 596.076 182.574 598.258 187.963C600.482 193.353 601.594 199.32 601.594 205.864C601.594 209.799 601.166 213.777 600.311 217.798C599.498 221.819 598.193 225.69 596.397 229.411C594.6 233.133 592.291 236.64 589.468 239.934C586.644 243.184 583.244 246.008 579.266 248.403C575.288 250.798 570.69 252.702 565.471 254.113C560.296 255.482 554.457 256.166 547.955 256.166L513.95 256.102V162.106ZM536.599 242.115H550.393C555.141 242.115 559.248 241.26 562.712 239.549C566.22 237.795 569.107 235.4 571.374 232.363C573.684 229.283 575.395 225.669 576.507 221.519C577.619 217.37 578.175 212.858 578.175 207.981C578.175 197.288 575.63 189.311 570.54 184.049C565.493 178.745 558.285 176.093 548.918 176.093H536.599V242.115Z" fill="url(#paint5_linear)"/>
<path d="M492.862 375.24H470.214V295.231H441.02L443.523 281.244H522.376L519.874 295.231H492.862V375.24Z" fill="url(#paint6_linear)"/>
<path d="M560.552 340.465V375.24H537.903V281.244H571.652C577.769 281.244 583.094 281.907 587.628 283.233C592.162 284.559 595.926 286.355 598.921 288.622C601.958 290.847 604.225 293.435 605.722 296.386C607.219 299.337 607.967 302.438 607.967 305.689C607.967 308.641 607.411 311.442 606.299 314.094C605.187 316.704 603.754 319.12 602 321.345C600.247 323.526 598.279 325.536 596.097 327.376C593.959 329.172 591.863 330.755 589.81 332.124L616.116 375.24H589.81L572.486 340.465H560.552ZM560.552 327.44H576.785C577.983 326.798 579.116 325.943 580.186 324.873C581.298 323.804 582.26 322.585 583.073 321.216C583.928 319.805 584.613 318.243 585.126 316.533C585.639 314.822 585.896 312.961 585.896 310.951C585.896 308.726 585.554 306.652 584.869 304.727C584.185 302.802 583.158 301.134 581.79 299.722C580.421 298.311 578.731 297.22 576.721 296.45C574.711 295.637 572.358 295.231 569.663 295.231H560.552V327.44Z" fill="url(#paint7_linear)"/>
<path d="M680.726 353.489H648.774L642.678 375.24H623.751L653.65 281.244H680.983L710.817 375.24H686.885L680.726 353.489ZM677.197 340.465L668.535 309.539L665.327 295.424H664.044L660.9 309.539L652.238 340.465H677.197Z" fill="url(#paint8_linear)"/>
<path d="M797.691 366.578C795.638 368.289 793.307 369.765 790.698 371.005C788.089 372.246 785.351 373.272 782.485 374.085C779.662 374.898 776.775 375.496 773.824 375.881C770.872 376.309 768.049 376.523 765.354 376.523C758.853 376.523 752.843 375.454 747.325 373.315C741.807 371.134 737.016 368.054 732.953 364.076C728.889 360.098 725.703 355.307 723.393 349.704C721.126 344.1 719.992 337.834 719.992 330.905C719.992 325.472 720.677 320.446 722.046 315.827C723.457 311.207 725.382 307.015 727.82 303.251C730.301 299.487 733.231 296.151 736.61 293.242C739.989 290.333 743.668 287.895 747.646 285.928C751.624 283.96 755.816 282.484 760.221 281.501C764.67 280.474 769.183 279.961 773.759 279.961C775.214 279.961 776.903 280.025 778.828 280.153C780.796 280.239 782.849 280.41 784.988 280.666C787.169 280.923 789.393 281.265 791.66 281.693C793.927 282.121 796.152 282.634 798.333 283.233L794.997 298.375L793.713 298.888C789.778 297.006 786.036 295.723 782.485 295.039C778.935 294.311 775.791 293.948 773.054 293.948C768.605 293.948 764.563 294.761 760.927 296.386C757.291 297.969 754.169 300.214 751.56 303.123C748.95 306.031 746.919 309.518 745.464 313.581C744.053 317.645 743.347 322.157 743.347 327.119C743.347 332.166 744.074 336.807 745.529 341.042C747.026 345.234 749.186 348.87 752.009 351.949C754.832 354.986 758.275 357.36 762.339 359.071C766.445 360.739 771.107 361.574 776.326 361.574C780.347 361.574 784.089 361.103 787.554 360.162C791.061 359.221 794.441 357.938 797.691 356.312V366.578Z" fill="url(#paint9_linear)"/>
<path d="M839.396 375.24H816.747V281.244H839.396V375.24ZM877.572 375.24L845.106 327.761L880.652 281.244H902.081L866.857 322.756L905.033 375.24H877.572Z" fill="url(#paint10_linear)"/>
<path d="M920.303 375.24V281.244H981.641L979.139 295.231H942.952V320.19H974.519L972.209 333.214H942.952V361.253H982.283L979.781 375.24H920.303Z" fill="url(#paint11_linear)"/>
<path d="M1024.44 340.465V375.24H1001.79V281.244H1035.54C1041.65 281.244 1046.98 281.907 1051.51 283.233C1056.05 284.559 1059.81 286.355 1062.8 288.622C1065.84 290.847 1068.11 293.435 1069.61 296.386C1071.1 299.337 1071.85 302.438 1071.85 305.689C1071.85 308.641 1071.3 311.442 1070.18 314.094C1069.07 316.704 1067.64 319.12 1065.88 321.345C1064.13 323.526 1062.16 325.536 1059.98 327.376C1057.84 329.172 1055.75 330.755 1053.69 332.124L1080 375.24H1053.69L1036.37 340.465H1024.44ZM1024.44 327.44H1040.67C1041.87 326.798 1043 325.943 1044.07 324.873C1045.18 323.804 1046.14 322.585 1046.96 321.216C1047.81 319.805 1048.5 318.243 1049.01 316.533C1049.52 314.822 1049.78 312.961 1049.78 310.951C1049.78 308.726 1049.44 306.652 1048.75 304.727C1048.07 302.802 1047.04 301.134 1045.67 299.722C1044.31 298.311 1042.62 297.22 1040.61 296.45C1038.59 295.637 1036.24 295.231 1033.55 295.231H1024.44V327.44Z" fill="url(#paint12_linear)"/>
</g>
<defs>
<linearGradient id="paint0_linear" x1="0.543656" y1="0.306685" x2="1079.79" y2="469.849" gradientUnits="userSpaceOnUse">
<stop stop-color="#0098EE"/>
<stop offset="1" stop-color="#01E5BB"/>
</linearGradient>
<linearGradient id="paint1_linear" x1="0.543656" y1="0.306685" x2="1079.79" y2="469.849" gradientUnits="userSpaceOnUse">
<stop stop-color="#0098EE"/>
<stop offset="1" stop-color="#01E5BB"/>
</linearGradient>
<linearGradient id="paint2_linear" x1="0.543656" y1="0.306685" x2="1079.79" y2="469.849" gradientUnits="userSpaceOnUse">
<stop stop-color="#0098EE"/>
<stop offset="1" stop-color="#01E5BB"/>
</linearGradient>
<linearGradient id="paint3_linear" x1="0.543656" y1="0.306685" x2="1079.79" y2="469.849" gradientUnits="userSpaceOnUse">
<stop stop-color="#0098EE"/>
<stop offset="1" stop-color="#01E5BB"/>
</linearGradient>
<linearGradient id="paint4_linear" x1="0.543656" y1="0.306685" x2="1079.79" y2="469.849" gradientUnits="userSpaceOnUse">
<stop stop-color="#0098EE"/>
<stop offset="1" stop-color="#01E5BB"/>
</linearGradient>
<linearGradient id="paint5_linear" x1="0.543656" y1="0.306685" x2="1079.79" y2="469.849" gradientUnits="userSpaceOnUse">
<stop stop-color="#0098EE"/>
<stop offset="1" stop-color="#01E5BB"/>
</linearGradient>
<linearGradient id="paint6_linear" x1="0.543656" y1="0.306685" x2="1079.79" y2="469.849" gradientUnits="userSpaceOnUse">
<stop stop-color="#0098EE"/>
<stop offset="1" stop-color="#01E5BB"/>
</linearGradient>
<linearGradient id="paint7_linear" x1="0.543656" y1="0.306685" x2="1079.79" y2="469.849" gradientUnits="userSpaceOnUse">
<stop stop-color="#0098EE"/>
<stop offset="1" stop-color="#01E5BB"/>
</linearGradient>
<linearGradient id="paint8_linear" x1="0.543656" y1="0.306685" x2="1079.79" y2="469.849" gradientUnits="userSpaceOnUse">
<stop stop-color="#0098EE"/>
<stop offset="1" stop-color="#01E5BB"/>
</linearGradient>
<linearGradient id="paint9_linear" x1="0.543656" y1="0.306685" x2="1079.79" y2="469.849" gradientUnits="userSpaceOnUse">
<stop stop-color="#0098EE"/>
<stop offset="1" stop-color="#01E5BB"/>
</linearGradient>
<linearGradient id="paint10_linear" x1="0.543656" y1="0.306685" x2="1079.79" y2="469.849" gradientUnits="userSpaceOnUse">
<stop stop-color="#0098EE"/>
<stop offset="1" stop-color="#01E5BB"/>
</linearGradient>
<linearGradient id="paint11_linear" x1="0.543656" y1="0.306685" x2="1079.79" y2="469.849" gradientUnits="userSpaceOnUse">
<stop stop-color="#0098EE"/>
<stop offset="1" stop-color="#01E5BB"/>
</linearGradient>
<linearGradient id="paint12_linear" x1="0.543656" y1="0.306685" x2="1079.79" y2="469.849" gradientUnits="userSpaceOnUse">
<stop stop-color="#0098EE"/>
<stop offset="1" stop-color="#01E5BB"/>
</linearGradient>
<clipPath id="clip0">
<rect width="1080" height="469.89" fill="white"/>
</clipPath>
</defs>
</svg>
