<svg width="1080" height="1080" viewBox="0 0 1080 1080" fill="none" xmlns="http://www.w3.org/2000/svg">
<rect width="1080" height="1080" fill="white"/>
<line y1="-5" x2="271.769" y2="-5" transform="matrix(-0.00368445 0.999993 -0.999995 -0.00306654 668.001 303)" stroke="#0098EE" stroke-width="10"/>
<line x1="939.77" y1="572" x2="668" y2="572" stroke="#0098EE" stroke-width="10"/>
<circle cx="819" cy="425" r="54" fill="white"/>
<path d="M97.3477 391.441C97.3477 385.484 99.4473 380.406 103.646 376.207C107.878 372.008 112.956 369.908 118.881 369.908H175.717V377.623H118.881C115.072 377.623 111.833 378.974 109.164 381.676C106.462 384.378 105.111 387.633 105.111 391.441V417.516C105.111 421.292 106.462 424.531 109.164 427.232C111.833 429.934 115.072 431.285 118.881 431.285H175.717V439H118.881C112.956 439 107.878 436.9 103.646 432.701C99.4473 428.502 97.3477 423.44 97.3477 417.516V391.441ZM242.855 391.393C247.348 391.393 251.189 392.988 254.379 396.178C257.569 399.368 259.164 403.209 259.164 407.701V422.691C259.164 427.184 257.569 431.025 254.379 434.215C251.189 437.405 247.348 439 242.855 439H204.77C200.277 439 196.436 437.405 193.246 434.215C190.056 431.025 188.461 427.184 188.461 422.691V407.701C188.461 403.209 190.056 399.368 193.246 396.178C196.436 392.988 200.277 391.393 204.77 391.393H242.855ZM251.4 407.701C251.4 405.325 250.57 403.307 248.91 401.646C247.217 399.986 245.199 399.156 242.855 399.156H204.77C202.393 399.156 200.375 399.986 198.715 401.646C197.022 403.307 196.176 405.325 196.176 407.701V422.691C196.176 425.068 197.022 427.086 198.715 428.746C200.375 430.439 202.393 431.285 204.77 431.285H242.855C245.199 431.285 247.217 430.439 248.91 428.746C250.57 427.086 251.4 425.068 251.4 422.691V407.701ZM341.635 391.393L322.445 425.182C319.353 430.064 316.749 433.401 314.633 435.191C311.703 437.73 308.22 439 304.184 439H303.354C299.285 439 295.753 437.747 292.758 435.24C290.284 433.157 287.68 429.755 284.945 425.035L266 391.393H274.643L291.537 421.324C293.848 425.426 295.915 428.193 297.738 429.625C299.268 430.862 301.14 431.48 303.354 431.48H304.184C306.365 431.48 308.22 430.829 309.75 429.527C311.247 428.193 313.347 425.426 316.049 421.227L332.992 391.393H341.635ZM349.008 391.393H356.771V439H349.008V391.393ZM349.008 369.859H356.82V377.672H349.008V369.859ZM440.756 419.42C440.756 424.824 438.835 429.446 434.994 433.287C431.153 437.096 426.531 439 421.127 439H386.508C381.951 439 378.061 437.389 374.838 434.166C371.615 430.976 370.004 427.102 370.004 422.545V407.848C370.004 403.323 371.615 399.449 374.838 396.227C378.061 393.004 381.951 391.393 386.508 391.393H421.127C425.521 391.393 429.477 392.727 432.992 395.396V369.908H440.756V419.42ZM421.127 431.285C424.382 431.285 427.182 430.113 429.525 427.77C431.837 425.458 432.992 422.675 432.992 419.42V410.973C432.992 407.717 431.837 404.934 429.525 402.623C427.182 400.312 424.382 399.156 421.127 399.156H386.508C384.099 399.156 382.048 400.003 380.355 401.695C378.63 403.388 377.768 405.439 377.768 407.848V422.545C377.768 424.954 378.63 427.005 380.355 428.697C382.048 430.423 384.099 431.285 386.508 431.285H421.127ZM97.3477 484.908H163.461V492.623H134.262V554H126.498V492.623H97.3477V484.908ZM176.156 522.701C176.156 518.209 177.751 514.368 180.941 511.178C184.132 507.988 187.973 506.393 192.465 506.393H234.408V514.156H192.465C190.121 514.156 188.103 514.986 186.41 516.646C184.75 518.307 183.92 520.325 183.92 522.701V554H176.156V522.701ZM256.283 546.285C254.2 546.285 252.426 545.943 250.961 545.26C248.715 544.186 247.592 542.395 247.592 539.889V539.205C247.592 536.699 248.715 534.908 250.961 533.834C252.393 533.15 254.167 532.809 256.283 532.809H294.076C296.16 532.809 297.934 533.15 299.398 533.834C301.645 534.908 302.768 536.682 302.768 539.156C302.768 543.909 299.87 546.285 294.076 546.285H256.283ZM310.531 522.115C310.531 517.851 308.904 514.173 305.648 511.08C302.393 507.955 298.536 506.393 294.076 506.393H245.248V514.156H294.076C296.452 514.156 298.52 515.019 300.277 516.744C301.938 518.339 302.768 520.13 302.768 522.115V526.9C300.229 525.663 297.331 525.045 294.076 525.045H256.283C251.368 525.045 247.396 526.347 244.369 528.951C241.342 531.555 239.828 534.973 239.828 539.205V539.889C239.828 544.12 241.342 547.538 244.369 550.143C247.396 552.714 251.368 554 256.283 554H294.076C299.057 554 303.044 552.665 306.039 549.996C309.001 547.294 310.499 543.697 310.531 539.205V522.115ZM321.762 525.973C321.762 520.569 323.682 515.963 327.523 512.154C331.365 508.313 335.987 506.393 341.391 506.393H385.873V514.156H341.391C338.103 514.156 335.303 515.312 332.992 517.623C330.681 519.934 329.525 522.717 329.525 525.973V534.42C329.525 537.675 330.681 540.458 332.992 542.77C335.303 545.113 338.103 546.285 341.391 546.285H385.873V554H341.391C335.987 554 331.365 552.096 327.523 548.287C323.682 544.446 321.762 539.824 321.762 534.42V525.973ZM463.607 535.25C467.416 538.538 469.32 542.672 469.32 547.652V554H461.605V547.652C461.605 545.243 460.743 543.193 459.018 541.5C457.325 539.807 455.274 538.961 452.865 538.961H406.381V554H398.617V484.908H406.381V508.883C409.05 507.223 411.947 506.393 415.072 506.393H452.865C457.943 506.393 462.012 508.085 465.072 511.471C467.839 514.563 469.223 518.29 469.223 522.652C469.223 527.861 467.351 532.06 463.607 535.25ZM452.865 531.197C455.665 531.197 457.846 530.302 459.408 528.512C460.775 526.949 461.459 524.996 461.459 522.652C461.459 520.341 460.775 518.388 459.408 516.793C457.846 515.035 455.665 514.156 452.865 514.156H415.072C412.696 514.156 410.645 515.003 408.92 516.695C407.227 518.388 406.381 520.439 406.381 522.848V531.197H452.865ZM533.09 506.393C538.493 506.393 543.116 508.313 546.957 512.154C550.798 515.963 552.719 520.569 552.719 525.973V532.418H489.73V537.545C489.73 539.954 490.593 542.005 492.318 543.697C494.011 545.423 496.062 546.285 498.471 546.285H552.67V554H498.471C493.913 554 490.023 552.389 486.801 549.166C483.611 545.976 482.016 542.102 482.016 537.545V522.848C482.016 518.323 483.611 514.449 486.801 511.227C490.023 508.004 493.913 506.393 498.471 506.393H533.09ZM544.857 524.654C544.532 521.692 543.246 519.202 541 517.184C538.754 515.165 536.117 514.156 533.09 514.156H498.471C496.062 514.156 494.011 515.003 492.318 516.695C490.593 518.388 489.73 520.439 489.73 522.848V524.654H544.857ZM565.414 522.701C565.414 518.209 567.009 514.368 570.199 511.178C573.389 507.988 577.23 506.393 581.723 506.393H623.666V514.156H581.723C579.379 514.156 577.361 514.986 575.668 516.646C574.008 518.307 573.178 520.325 573.178 522.701V554H565.414V522.701Z" fill="url(#paint0_linear)"/>
<path d="M917.113 410.125C912.744 410.125 909.121 413.61 909.121 417.812H892.712C891.114 403.77 885.36 390.855 876.516 380.4L888.131 369.228L888.237 369.33C891.327 372.302 896.442 372.302 899.532 369.33C902.622 366.357 902.622 361.438 899.532 358.465L888.237 347.6C885.147 344.628 880.033 344.628 876.943 347.6C873.853 350.573 873.853 355.39 876.836 358.362L865.222 369.535C854.354 361.13 841.035 355.595 826.437 354.058V338.375H826.544C830.912 338.375 834.535 334.89 834.535 330.688C834.535 326.485 830.912 323 826.544 323H810.561C806.192 323 802.569 326.485 802.569 330.688C802.569 334.89 806.086 338.273 810.454 338.375V354.263C795.857 355.698 782.538 361.335 771.669 369.74L760.055 358.567L760.162 358.465C763.252 355.493 763.252 350.573 760.162 347.6C757.072 344.628 751.957 344.628 748.867 347.6L737.573 358.465C734.483 361.438 734.483 366.357 737.573 369.33C740.663 372.302 745.67 372.303 748.76 369.433L760.375 380.605C751.637 391.06 745.884 403.77 744.392 417.812H727.983C727.983 413.61 724.36 410.125 719.991 410.125C715.623 410.125 712 413.61 712 417.812V433.188C712 437.39 715.623 440.875 719.991 440.875C724.36 440.875 727.983 437.39 727.983 433.188H744.392C745.99 447.23 751.744 459.94 760.375 470.395L748.76 481.567C745.67 478.595 740.663 478.697 737.573 481.67C734.483 484.643 734.483 489.563 737.573 492.535L748.867 503.4C751.957 506.372 757.072 506.372 760.162 503.4C763.252 500.428 763.252 495.508 760.162 492.535L760.055 492.433L771.669 481.26C782.538 489.665 795.75 495.2 810.348 496.738V512.625C805.979 512.727 802.463 516.11 802.463 520.312C802.463 524.515 806.086 528 810.454 528H826.437C830.806 528 834.428 524.515 834.428 520.312C834.428 516.11 830.806 512.625 826.437 512.625H826.33V496.84C840.928 495.405 854.247 489.768 865.115 481.363L876.73 492.535C873.64 495.508 873.746 500.325 876.836 503.298C879.926 506.27 885.041 506.27 888.131 503.298L899.425 492.433C902.515 489.46 902.515 484.54 899.425 481.567C896.335 478.595 891.221 478.595 888.131 481.567L888.024 481.67L876.41 470.497C885.147 460.042 891.008 447.23 892.606 433.085H909.015C909.015 437.287 912.638 440.772 917.006 440.772C921.375 440.772 924.998 437.287 924.998 433.085V417.71C925.104 413.61 921.481 410.125 917.113 410.125ZM837.199 384.5C843.059 384.5 847.854 389.113 847.854 394.75C847.854 400.387 843.059 405 837.199 405C831.338 405 826.544 400.387 826.544 394.75C826.544 389.113 831.338 384.5 837.199 384.5ZM818.552 435.75C812.692 435.75 807.897 431.137 807.897 425.5C807.897 419.863 812.692 415.25 818.552 415.25C824.412 415.25 829.207 419.863 829.207 425.5C829.207 431.137 824.412 435.75 818.552 435.75ZM799.906 384.5C805.766 384.5 810.561 389.113 810.561 394.75C810.561 400.387 805.766 405 799.906 405C794.045 405 789.25 400.387 789.25 394.75C789.25 389.113 794.045 384.5 799.906 384.5ZM781.259 435.75C775.399 435.75 770.604 431.137 770.604 425.5C770.604 419.863 775.399 415.25 781.259 415.25C787.119 415.25 791.914 419.863 791.914 425.5C791.914 431.137 787.119 435.75 781.259 435.75ZM799.906 466.5C794.045 466.5 789.25 461.887 789.25 456.25C789.25 450.613 794.045 446 799.906 446C805.766 446 810.561 450.613 810.561 456.25C810.561 461.887 805.766 466.5 799.906 466.5ZM837.199 466.5C831.338 466.5 826.544 461.887 826.544 456.25C826.544 450.613 831.338 446 837.199 446C843.059 446 847.854 450.613 847.854 456.25C847.854 461.887 843.059 466.5 837.199 466.5ZM845.19 425.5C845.19 419.863 849.985 415.25 855.845 415.25C861.706 415.25 866.501 419.863 866.501 425.5C866.501 431.137 861.706 435.75 855.845 435.75C849.985 435.75 845.19 431.137 845.19 425.5Z" fill="url(#paint1_linear)"/>
<path d="M351.069 974.576C348.69 974.675 346.31 974.722 343.932 974.715C326.578 974.666 309.288 971.801 292.773 966.251C276.451 960.766 260.901 952.665 246.813 942.077C233.213 931.856 220.963 919.318 210.681 904.578C184.96 867.705 176.379 823.983 183.299 783.102C190.231 742.146 212.713 704.048 249.102 678.512L249.128 678.493C260.095 670.801 271.641 664.553 283.831 660.188C296.05 655.813 308.892 653.338 322.418 653.206L322.476 653.206C341.38 652.194 360.422 654.923 378.489 661.176C379.753 661.617 380.325 663.005 379.766 664.275C379.207 665.546 377.729 666.219 376.465 665.778C358.986 659.728 340.578 657.088 322.318 658.068C322.221 658.079 322.125 658.083 322.028 658.084C318.505 658.281 314.988 658.611 311.484 659.079C290.584 661.87 270.151 669.526 251.835 682.374L251.805 682.395C220.231 704.555 200.944 737.976 195.284 774.102C189.605 810.352 197.634 849.32 220.718 882.412C231.444 897.788 244.472 910.537 258.948 920.491C273.976 930.823 290.552 938.143 307.724 942.263C325.033 946.416 343.081 947.339 360.699 944.771C363.015 944.845 364.521 948.368 362.387 949.382C325.126 955.156 286.917 945.921 255.833 924.549C240.93 914.303 227.524 901.186 216.494 885.374C192.731 851.308 184.472 811.15 190.329 773.763C190.421 773.179 190.516 772.595 190.614 772.012C189.677 775.812 188.879 779.646 188.225 783.507C181.504 823.214 189.867 865.721 214.905 901.615C224.926 915.981 236.852 928.191 250.084 938.135C263.8 948.444 278.908 956.32 294.743 961.642C312.861 967.731 331.868 970.455 350.765 969.726C355.26 969.553 356.89 974.332 351.069 974.576ZM400.033 978.712C400.856 978.396 401.732 978.77 401.99 979.547C402.249 980.325 401.791 981.211 400.968 981.527C389.756 985.814 378.195 988.767 366.509 990.419C354.644 992.096 342.641 992.432 330.735 991.459C329.885 991.389 329.311 990.655 329.453 989.819C329.595 988.983 330.399 988.362 331.25 988.432C342.911 989.385 354.676 989.055 366.313 987.41C377.758 985.792 389.071 982.903 400.033 978.712ZM196.65 907.645C194.661 909.04 192.305 909.496 190.104 909.104C187.98 908.727 186.011 907.555 184.702 905.678C183.393 903.802 182.97 901.546 183.345 899.415C183.733 897.208 184.968 895.144 186.957 893.749C188.945 892.354 191.301 891.899 193.503 892.29C195.627 892.668 197.595 893.84 198.904 895.716C200.213 897.593 200.636 899.849 200.261 901.98C199.873 904.187 198.639 906.25 196.65 907.645ZM191.387 904.322C192.256 904.476 193.177 904.303 193.943 903.765C194.71 903.227 195.188 902.42 195.341 901.548C195.508 900.6 195.301 899.568 194.681 898.679C194.06 897.79 193.165 897.241 192.219 897.073C191.351 896.919 190.43 897.092 189.663 897.63C188.897 898.167 188.419 898.975 188.265 899.846C188.099 900.795 188.306 901.826 188.926 902.716C189.546 903.605 190.441 904.153 191.387 904.322ZM283.928 975.3C284.72 975.566 285.087 976.427 284.747 977.223C284.407 978.018 283.489 978.447 282.697 978.181C266.466 972.726 250.999 964.668 236.981 954.132C223.45 943.963 211.261 931.486 201.028 916.817C200.561 916.147 200.773 915.19 201.502 914.678C202.231 914.167 203.201 914.295 203.668 914.965C213.738 929.401 225.724 941.672 239.025 951.668C252.811 962.03 268.002 969.948 283.928 975.3ZM303.572 927.218C305.147 927.595 306.731 927.95 308.322 928.276L309.737 923.495C308.198 923.178 306.667 922.837 305.143 922.472L303.572 927.218ZM323.197 930.552C324.872 930.719 326.545 930.86 328.229 930.973L328.977 926.102C327.351 925.994 325.733 925.857 324.116 925.695L323.197 930.552ZM343.473 931.182C345.174 931.115 346.877 931.02 348.58 930.892L348.602 926.024C346.961 926.148 345.32 926.24 343.68 926.304L343.473 931.182ZM272.388 909.416C269.891 908.963 268.146 907.051 267.344 904.328C266.673 902.049 266.663 899.13 267.468 896.097L267.467 896.097L267.499 895.984C268.335 892.91 269.875 890.224 271.689 888.368C273.826 886.18 276.395 885.053 278.888 885.506C281.385 885.96 283.13 887.871 283.931 890.594C284.603 892.873 284.613 895.793 283.807 898.825L283.809 898.825L283.777 898.938C282.941 902.013 281.401 904.698 279.587 906.555C277.482 908.709 274.959 909.835 272.502 909.436L272.501 909.438L272.388 909.416ZM272.163 902.641C272.375 903.36 272.848 904.473 273.687 904.622C274.354 904.743 275.228 904.25 276.102 903.355C277.28 902.15 278.306 900.332 278.91 898.177C279.427 896.351 279.656 894.127 279.113 892.281C278.785 891.169 278.251 890.421 277.588 890.3C276.922 890.179 276.048 890.672 275.173 891.567C273.996 892.772 272.97 894.591 272.366 896.746C271.849 898.571 271.62 900.796 272.163 902.641ZM440.028 691.394C439.39 690.88 439.345 689.923 439.927 689.257C440.51 688.591 441.501 688.468 442.139 688.983C453.562 698.181 463.646 709.041 472.042 721.077C472.509 721.747 472.297 722.704 471.568 723.216C470.839 723.727 469.869 723.599 469.402 722.929C465.184 716.881 460.629 711.255 455.789 706.06C450.842 700.75 445.571 695.858 440.028 691.394ZM420.86 677.953C418.523 680.919 414.869 682.429 410.85 682.472C407.146 682.511 403.087 681.279 399.551 678.764C396.029 676.259 393.647 672.909 392.642 669.517C391.552 665.836 392.047 662.076 394.385 659.109C396.722 656.143 400.376 654.633 404.394 654.59C408.099 654.551 412.158 655.783 415.693 658.298L416.017 658.533C419.362 661.01 421.629 664.258 422.603 667.545C423.693 671.226 423.198 674.986 420.86 677.953ZM411.207 677.594C413.626 677.568 415.744 676.763 416.987 675.184C418.23 673.607 418.448 671.453 417.794 669.247C417.055 666.752 415.239 664.242 412.519 662.308L412.516 662.305C409.811 660.382 406.769 659.439 404.038 659.468C401.619 659.494 399.501 660.3 398.257 661.878C397.014 663.455 396.797 665.609 397.45 667.815C398.189 670.31 400.006 672.82 402.725 674.754C405.431 676.679 408.475 677.623 411.207 677.594ZM481.686 755.189C479.51 756.715 476.77 756.806 474.099 755.719C471.84 754.799 469.576 752.989 467.844 750.506C466.112 748.023 465.192 745.27 465.106 742.826C465.003 739.938 466.028 737.388 468.204 735.861C470.381 734.335 473.121 734.244 475.791 735.331C478.05 736.25 480.314 738.061 482.046 740.544C483.778 743.027 484.698 745.78 484.785 748.224C484.888 751.112 483.863 753.662 481.686 755.189ZM476.355 751.203C477.44 751.644 478.4 751.714 478.979 751.308C479.559 750.902 479.822 749.973 479.781 748.799C479.723 747.181 479.066 745.289 477.823 743.507C476.579 741.724 475.032 740.456 473.536 739.847C472.451 739.406 471.49 739.335 470.911 739.742C470.332 740.148 470.068 741.077 470.11 742.25C470.167 743.869 470.825 745.761 472.068 747.543C473.311 749.326 474.859 750.594 476.355 751.203ZM447.05 745.288C445.062 746.683 442.706 747.139 440.505 746.747C438.38 746.37 436.412 745.198 435.103 743.321C433.794 741.445 433.371 739.189 433.746 737.058C434.134 734.85 435.368 732.787 437.357 731.392C439.346 729.997 441.702 729.542 443.903 729.933C446.027 730.311 447.996 731.483 449.305 733.359C450.614 735.236 451.036 737.492 450.662 739.623C450.274 741.83 449.039 743.893 447.05 745.288ZM441.788 741.965C442.656 742.119 443.577 741.946 444.344 741.408C445.11 740.87 445.588 740.062 445.742 739.191C445.908 738.243 445.701 737.211 445.081 736.322C444.461 735.433 443.565 734.884 442.62 734.716C441.751 734.561 440.83 734.735 440.064 735.273C439.297 735.81 438.819 736.618 438.666 737.489C438.499 738.438 438.706 739.469 439.326 740.359C439.947 741.248 440.842 741.796 441.788 741.965ZM382.877 689.883C383.728 688.8 383.725 687.355 383.35 686.089C382.84 684.365 381.573 682.623 379.673 681.271C377.784 679.928 375.672 679.27 373.784 679.29C372.209 679.307 370.848 679.808 370.074 680.791L370.072 680.793C369.3 681.774 369.176 683.152 369.601 684.585C370.111 686.309 371.377 688.051 373.278 689.403C375.166 690.745 377.278 691.404 379.167 691.384C380.742 691.367 382.103 690.865 382.877 689.883ZM386.457 693.004C384.587 695.141 381.824 696.23 378.81 696.262C375.992 696.292 372.914 695.373 370.224 693.497L369.886 693.329L369.778 693.174C367.253 691.279 365.537 688.8 364.793 686.287C363.931 683.378 364.332 680.393 366.201 678.022L366.493 677.67C368.364 675.533 371.127 674.444 374.14 674.412C377.001 674.381 380.129 675.329 382.846 677.261C385.55 679.184 387.382 681.767 388.158 684.386C389.02 687.296 388.619 690.28 386.75 692.652L386.457 693.004ZM308.676 912.249C309.956 912.654 310.569 914.023 310.046 915.306C309.523 916.589 308.062 917.301 306.782 916.896C304.574 916.204 302.211 915.368 299.724 914.391C297.372 913.466 294.882 912.4 292.28 911.193C291.077 910.635 290.648 909.192 291.323 907.971C291.997 906.75 293.52 906.212 294.724 906.77C297.166 907.903 299.574 908.932 301.915 909.852C304.274 910.779 306.538 911.579 308.676 912.249ZM257.085 882.216C258.062 883.083 258.065 884.617 257.091 885.643C256.117 886.669 254.535 886.798 253.558 885.932C246.304 879.511 239.643 872.34 234.091 864.381C228.497 856.362 224.769 848.65 222.598 841.376C221.953 839.214 221.447 837.091 221.071 835.012C222.643 835.562 224.466 835.457 226.116 834.444C226.448 836.154 226.876 837.898 227.406 839.674C229.437 846.477 232.973 853.761 238.314 861.418C240.918 865.151 243.77 868.7 246.803 872.059C250.069 875.676 253.522 879.063 257.085 882.216ZM242.926 787.616C243.065 787.539 243.206 787.462 243.346 787.386C243.382 787.519 243.429 787.667 243.474 787.813C243.295 787.738 243.112 787.673 242.926 787.616ZM213.096 761.042C216.046 747.603 221.158 734.702 228.344 722.92C236.792 709.068 248.098 696.757 262.114 686.925C272.084 679.932 282.78 674.657 293.865 671.035C305.299 667.298 317.124 665.338 328.971 665.08C330.348 665.049 331.397 666.112 331.315 667.454C331.233 668.795 330.051 669.908 328.674 669.938C317.337 670.185 306.029 672.059 295.104 675.629C284.568 679.072 274.367 684.109 264.821 690.805C251.448 700.186 240.662 711.931 232.601 725.148C225.648 736.549 220.719 749.042 217.903 762.055C217.561 761.955 217.322 761.922 217.228 761.883C217.103 761.831 216.668 761.543 216.186 761.357C215.203 760.979 214.135 760.872 213.096 761.042ZM239.268 775.443C239.884 775.194 240.498 774.944 241.113 774.694C241.136 774.92 241.12 775.137 241.107 775.39C240.778 775.389 240.461 775.4 240.205 775.435L239.268 775.443ZM420.677 690.291C419.655 689.468 419.582 687.937 420.515 686.872C421.448 685.806 423.032 685.609 424.054 686.432C435.526 695.671 445.683 706.606 454.116 718.695C454.863 719.766 454.523 721.298 453.357 722.116C452.191 722.935 450.639 722.729 449.892 721.658C445.686 715.629 441.157 710.032 436.354 704.876C431.44 699.601 426.196 694.736 420.677 690.291ZM459.987 919.933C461.674 916.403 462.723 912.675 463.158 908.907C463.588 905.179 463.416 901.411 462.662 897.753C461.127 898.398 459.375 899.206 457.368 900.209C456.204 900.795 454.787 900.324 454.203 899.157C453.618 897.989 454.089 896.568 455.253 895.982C461.796 892.71 466.006 891.338 468.958 890.905C472.259 890.42 474.038 891.033 475.623 891.613C476.616 891.977 477.534 892.473 478.451 892.968C479.701 893.643 480.948 894.317 481.317 894.251C481.368 894.228 481.42 894.207 481.472 894.187C482.129 893.87 482.615 893.319 482.872 892.675C483.145 891.992 483.162 891.212 482.858 890.499L476.469 875.516C476.443 875.46 476.418 875.403 476.395 875.344C476.082 874.664 475.523 874.163 474.867 873.899C474.21 873.635 473.462 873.609 472.771 873.883C472.739 873.898 472.706 873.912 472.674 873.926C472.367 874.119 471.986 875.508 471.603 876.901C471.326 877.911 471.048 878.923 470.626 879.891C469.95 881.44 469.162 883.153 466.531 885.212C464.181 887.051 460.286 889.154 453.406 891.637C452.18 892.08 450.828 891.442 450.386 890.212C449.944 888.982 450.581 887.626 451.808 887.183C453.929 886.417 455.729 885.702 457.261 885.031C456.401 883.777 455.449 882.567 454.408 881.411C452.916 879.754 451.247 878.22 449.409 876.838C447.648 875.514 445.814 874.387 443.931 873.453C442.483 872.734 440.985 872.121 439.449 871.614C439.238 873.272 439.059 875.201 438.922 877.451C438.842 878.754 437.724 879.745 436.425 879.665C435.127 879.585 434.138 878.465 434.218 877.162C434.663 869.845 435.584 865.504 436.685 862.724C437.923 859.601 439.334 858.367 440.621 857.287C441.384 856.646 442.297 856.081 443.209 855.517C444.406 854.776 445.6 854.036 445.752 853.678C445.757 853.616 445.766 853.555 445.777 853.493L445.779 853.493C445.832 852.767 445.598 852.072 445.17 851.525C444.748 850.986 444.139 850.597 443.434 850.472C443.34 850.467 443.245 850.456 443.15 850.439L443.15 850.434L427.251 848.518C427.138 848.515 427.024 848.503 426.91 848.483L426.91 848.481C426.186 848.428 425.493 848.662 424.948 849.091C424.41 849.515 424.022 850.125 423.897 850.833C423.894 850.902 423.887 850.972 423.877 851.042C423.938 851.425 424.925 852.428 425.914 853.434C426.645 854.176 427.376 854.919 428.004 855.775C429.008 857.142 430.097 858.687 430.557 861.983C430.968 864.927 430.834 869.358 429.534 876.598C429.304 877.881 428.08 878.735 426.801 878.504C425.521 878.273 424.67 877.046 424.9 875.763C425.299 873.541 425.58 871.622 425.765 869.957C422.017 870.253 418.323 871.151 414.841 872.63C411.391 874.096 408.15 876.129 405.268 878.707C406.596 879.722 408.175 880.843 410.053 882.089C411.136 882.813 411.429 884.28 410.707 885.366C409.985 886.453 408.522 886.746 407.439 886.022C401.338 881.974 398.049 879.005 396.201 876.661C394.143 874.051 393.782 872.196 393.49 870.526C393.304 869.462 393.274 868.427 393.244 867.393C393.201 865.966 393.159 864.541 392.911 864.255C392.872 864.226 392.833 864.196 392.795 864.164C392.191 863.746 391.471 863.597 390.784 863.695C390.061 863.799 389.377 864.178 388.907 864.807C385.744 869.214 382.351 873.579 379.097 877.933C378.632 878.556 378.463 879.315 378.566 880.038C378.67 880.763 379.048 881.449 379.676 881.921C379.937 882.117 381.363 881.744 382.792 881.37C383.787 881.11 384.783 880.85 385.864 880.729C387.542 880.541 389.417 880.369 392.505 881.621C395.264 882.741 399.027 885.073 404.619 889.813C405.612 890.656 405.735 892.147 404.893 893.142C404.052 894.137 402.566 894.26 401.573 893.417C399.849 891.955 398.329 890.749 396.982 889.754C395.317 893.231 394.265 896.906 393.813 900.627C393.354 904.416 393.52 908.241 394.299 911.941C395.837 911.296 397.592 910.486 399.604 909.48C400.768 908.894 402.185 909.366 402.77 910.533C403.354 911.7 402.884 913.121 401.72 913.707C395.177 916.98 390.967 918.351 388.015 918.784C384.714 919.269 382.935 918.657 381.35 918.076C380.357 917.713 379.438 917.217 378.521 916.721C377.221 916.019 375.924 915.318 375.615 915.45C374.899 915.757 374.373 916.333 374.1 917.015C373.827 917.697 373.81 918.477 374.114 919.191C376.257 924.216 378.426 929.237 380.545 934.272C380.851 934.989 381.425 935.518 382.105 935.791C382.784 936.064 383.561 936.081 384.271 935.778L384.275 935.776C384.585 935.643 384.977 934.217 385.369 932.789C385.646 931.778 385.924 930.766 386.346 929.799C387.023 928.249 387.81 926.536 390.441 924.477C392.791 922.638 396.686 920.535 403.566 918.052C404.793 917.609 406.145 918.248 406.586 919.478C407.028 920.707 406.391 922.064 405.165 922.506C403.055 923.268 401.262 923.98 399.736 924.648C400.605 925.889 401.552 927.096 402.586 928.255C404.071 929.921 405.723 931.469 407.564 932.852C409.337 934.185 411.2 935.324 413.125 936.273C414.558 936.98 416.028 937.581 417.523 938.076C417.735 936.418 417.913 934.489 418.051 932.238C418.13 930.935 419.248 929.944 420.547 930.024C421.846 930.104 422.834 931.225 422.755 932.527C422.309 939.844 421.389 944.185 420.287 946.966C419.05 950.089 417.638 951.322 416.351 952.403C415.588 953.043 414.675 953.608 413.764 954.173C412.504 954.953 411.247 955.731 411.206 956.065C411.113 956.838 411.348 957.585 411.802 958.164C412.255 958.742 412.922 959.147 413.692 959.24L429.722 961.171C429.835 961.174 429.949 961.186 430.063 961.206L430.063 961.209C430.786 961.262 431.48 961.027 432.025 960.598C432.562 960.175 432.95 959.565 433.075 958.858C433.079 958.787 433.086 958.717 433.096 958.647C433.033 958.263 432.046 957.26 431.058 956.256C430.328 955.513 429.597 954.77 428.969 953.915C427.965 952.547 426.875 951.002 426.415 947.706C426.004 944.762 426.138 940.332 427.438 933.092C427.668 931.808 428.892 930.955 430.172 931.185C431.451 931.416 432.303 932.643 432.073 933.927C431.674 936.15 431.392 938.07 431.207 939.736C435.084 939.43 438.897 938.482 442.474 936.917C445.793 935.465 448.915 933.481 451.705 930.983C450.377 929.968 448.798 928.847 446.92 927.6C445.837 926.876 445.544 925.409 446.266 924.323C446.988 923.237 448.451 922.943 449.534 923.667C455.635 927.715 458.923 930.684 460.771 933.028C462.829 935.638 463.19 937.493 463.482 939.163C463.668 940.228 463.698 941.263 463.729 942.296C463.771 943.724 463.813 945.148 464.061 945.434C464.101 945.463 464.14 945.494 464.178 945.526C464.781 945.944 465.502 946.093 466.189 945.994C466.876 945.895 467.528 945.548 467.995 944.973C468.044 944.901 468.097 944.831 468.154 944.764L477.876 931.756C478.341 931.134 478.509 930.374 478.406 929.652C478.308 928.963 477.961 928.309 477.388 927.84C477.345 927.812 477.304 927.781 477.264 927.75C476.933 927.6 475.558 927.959 474.18 928.319C473.186 928.579 472.19 928.839 471.108 928.96C469.43 929.148 467.555 929.321 464.468 928.068C461.709 926.949 457.945 924.617 452.353 919.877C451.361 919.033 451.238 917.543 452.079 916.547C452.92 915.552 454.407 915.429 455.399 916.273C457.122 917.733 458.641 918.939 459.987 919.933ZM467.832 909.443C467.314 913.931 466.027 918.371 463.941 922.558C464.8 923.049 465.558 923.418 466.233 923.692C468.246 924.509 469.48 924.395 470.584 924.272C471.216 924.201 472.103 923.969 472.988 923.738C475.515 923.077 478.036 922.418 480.134 923.995L480.136 923.996C481.794 925.243 482.794 927.058 483.068 928.978C483.343 930.9 482.889 932.93 481.639 934.602C478.378 938.966 475.148 943.417 471.829 947.729C470.585 949.392 468.775 950.395 466.861 950.669C465.003 950.936 463.046 950.517 461.41 949.351C461.298 949.281 461.191 949.2 461.091 949.109C459.164 947.531 459.089 944.99 459.014 942.443C458.987 941.53 458.96 940.615 458.848 939.976C458.657 938.88 458.42 937.663 457.065 935.944C456.613 935.371 456.046 934.745 455.333 934.055C452.048 937.098 448.33 939.501 444.362 941.237C440.088 943.107 435.532 944.201 430.92 944.488C430.926 945.479 430.987 946.322 431.088 947.047C431.391 949.215 432.103 950.226 432.76 951.12C433.154 951.657 433.789 952.302 434.423 952.947C436.253 954.807 438.079 956.664 437.767 959.265L437.751 959.395L437.757 959.396C437.75 959.437 437.742 959.478 437.733 959.518C437.431 961.483 436.39 963.167 434.933 964.315C433.415 965.51 431.439 966.128 429.372 965.879L429.242 965.863L429.241 965.869L429.164 965.854L413.132 963.923C411.064 963.674 409.289 962.603 408.096 961.08C406.953 959.622 406.34 957.741 406.51 955.762C406.512 955.574 406.536 955.387 406.581 955.206C407.02 952.796 409.147 951.479 411.279 950.159C412.02 949.7 412.763 949.241 413.322 948.771C414.182 948.049 415.124 947.227 415.919 945.222C416.188 944.543 416.445 943.738 416.684 942.773C414.77 942.174 412.882 941.421 411.04 940.513C408.86 939.438 406.746 938.144 404.726 936.626C402.621 935.044 400.743 933.286 399.064 931.403C397.758 929.939 396.566 928.386 395.476 926.773C394.614 927.277 393.911 927.753 393.334 928.205C391.627 929.54 391.108 930.67 390.662 931.693C390.392 932.31 390.154 933.179 389.916 934.046C389.244 936.495 388.573 938.938 386.343 940.021C386.21 940.094 386.073 940.154 385.933 940.199C384.072 940.936 382.082 940.878 380.351 940.182C378.614 939.484 377.132 938.143 376.297 936.317C376.237 936.204 376.187 936.089 376.146 935.97L369.786 921.053C368.966 919.131 369.002 917.053 369.721 915.255C370.417 913.514 371.754 912.028 373.575 911.191C373.708 911.119 373.846 911.061 373.987 911.018C376.305 910.159 378.526 911.359 380.751 912.561C381.544 912.989 382.338 913.418 382.965 913.647C384.011 914.03 385.184 914.435 387.327 914.12C388.05 914.014 388.876 913.834 389.833 913.558C388.825 909.141 388.585 904.567 389.133 900.049C389.669 895.635 390.961 891.262 393.027 887.129C392.169 886.639 391.414 886.271 390.74 885.997C388.727 885.18 387.493 885.294 386.388 885.418C385.756 885.489 384.87 885.72 383.984 885.952C381.458 886.612 378.936 887.271 376.838 885.695C375.179 884.447 374.178 882.632 373.904 880.712C373.63 878.789 374.084 876.76 375.333 875.088L385.143 861.962C386.387 860.298 388.197 859.295 390.112 859.02C392.029 858.745 394.053 859.2 395.72 860.453C397.805 862.02 397.881 864.63 397.959 867.246C397.985 868.16 398.012 869.075 398.124 869.714C398.316 870.809 398.552 872.027 399.907 873.745C400.359 874.318 400.926 874.944 401.639 875.634C405.037 872.486 408.89 870.025 412.999 868.279C417.155 866.513 421.575 865.477 426.052 865.199C426.046 864.209 425.986 863.367 425.884 862.643C425.582 860.474 424.869 859.464 424.213 858.57C423.818 858.032 423.183 857.387 422.549 856.742C420.72 854.882 418.893 853.026 419.205 850.425L419.222 850.295L419.215 850.294C419.222 850.252 419.231 850.212 419.24 850.171C419.542 848.206 420.583 846.522 422.04 845.375C423.557 844.179 425.533 843.562 427.601 843.811L427.731 843.826L427.732 843.821L427.808 843.836C433.19 844.484 438.598 845.084 443.97 845.784L443.972 845.777C444.013 845.784 444.053 845.792 444.093 845.802C446.053 846.104 447.732 847.148 448.877 848.609C450.019 850.068 450.632 851.948 450.463 853.928C450.461 854.115 450.437 854.302 450.391 854.484C449.952 856.893 447.825 858.211 445.693 859.53C444.952 859.989 444.21 860.449 443.65 860.919C442.79 861.641 441.848 862.463 441.054 864.468C440.785 865.146 440.528 865.951 440.289 866.915C442.222 867.522 444.14 868.292 446.027 869.228C448.186 870.3 450.269 871.577 452.247 873.064C454.343 874.64 456.236 876.378 457.92 878.248C459.243 879.717 460.443 881.274 461.519 882.904C462.371 882.404 463.066 881.933 463.639 881.485C465.345 880.149 465.864 879.019 466.311 877.996C466.58 877.379 466.818 876.51 467.057 875.643C467.729 873.194 468.4 870.751 470.631 869.668C470.763 869.595 470.9 869.536 471.04 869.49C472.9 868.754 474.891 868.812 476.622 869.508C478.415 870.229 479.938 871.636 480.756 873.555L487.187 888.636C488.007 890.559 487.97 892.636 487.251 894.434C486.532 896.233 485.129 897.759 483.215 898.58L483.154 898.605C480.775 899.588 478.5 898.36 476.221 897.129C475.428 896.7 474.634 896.272 474.007 896.042C472.962 895.659 471.789 895.255 469.645 895.57C468.921 895.676 468.091 895.857 467.131 896.134C468.103 900.482 468.346 904.985 467.832 909.443Z" fill="url(#paint2_linear)"/>
<path d="M353.762 827.349C351.3 829.406 348.505 831.18 345.376 832.672C342.247 834.164 338.965 835.398 335.528 836.375C332.143 837.352 328.681 838.072 325.142 838.535C321.603 839.05 318.218 839.307 314.987 839.307C307.191 839.307 299.985 838.021 293.369 835.449C286.752 832.826 281.008 829.123 276.135 824.34C271.263 819.557 267.442 813.797 264.672 807.059C261.954 800.321 260.595 792.787 260.595 784.455C260.595 777.923 261.415 771.88 263.057 766.325C264.749 760.77 267.057 755.73 269.981 751.204C272.956 746.678 276.469 742.666 280.521 739.169C284.573 735.672 288.983 732.74 293.753 730.374C298.523 728.008 303.55 726.234 308.832 725.051C314.166 723.816 319.577 723.199 325.065 723.199C326.809 723.199 328.835 723.276 331.143 723.431C333.502 723.534 335.964 723.739 338.529 724.048C341.145 724.357 343.812 724.768 346.53 725.282C349.248 725.797 351.915 726.414 354.531 727.134L350.53 745.341L348.992 745.958C344.273 743.695 339.785 742.152 335.528 741.329C331.271 740.455 327.502 740.018 324.219 740.018C318.885 740.018 314.038 740.995 309.679 742.949C305.319 744.852 301.575 747.552 298.446 751.05C295.318 754.547 292.881 758.739 291.138 763.625C289.445 768.511 288.599 773.937 288.599 779.903C288.599 785.972 289.471 791.552 291.215 796.644C293.01 801.684 295.6 806.056 298.985 809.759C302.37 813.411 306.499 816.265 311.371 818.323C316.295 820.328 321.885 821.331 328.143 821.331C332.964 821.331 337.452 820.766 341.606 819.634C345.812 818.503 349.864 816.96 353.762 815.005V827.349Z" fill="url(#paint3_linear)"/>
<path d="M403.369 828.599C406.231 828.599 408.785 827.935 411.031 826.608C413.278 825.281 415.17 823.507 416.709 821.285C418.248 819.032 419.417 816.44 420.217 813.509C421.017 810.546 421.417 807.46 421.417 804.251C421.417 800.795 420.971 797.554 420.079 794.53C419.186 791.475 417.909 788.806 416.247 786.522C414.616 784.239 412.631 782.433 410.293 781.106C407.985 779.779 405.415 779.116 402.584 779.116C399.722 779.116 397.168 779.795 394.921 781.153C392.706 782.48 390.828 784.269 389.29 786.522C387.782 788.744 386.628 791.336 385.828 794.299C385.028 797.23 384.628 800.301 384.628 803.51C384.628 806.966 385.074 810.222 385.966 813.277C386.859 816.301 388.12 818.955 389.751 821.239C391.382 823.491 393.352 825.281 395.66 826.608C397.968 827.935 400.537 828.599 403.369 828.599ZM401.799 838.69C396.968 838.69 392.475 837.949 388.32 836.468C384.197 834.956 380.612 832.78 377.565 829.941C374.518 827.071 372.118 823.569 370.364 819.433C368.641 815.298 367.779 810.592 367.779 805.315C367.779 799.915 368.687 794.993 370.503 790.549C372.349 786.075 374.888 782.248 378.119 779.07C381.381 775.891 385.228 773.423 389.659 771.664C394.121 769.905 398.983 769.025 404.246 769.025C409.046 769.025 413.509 769.766 417.632 771.247C421.787 772.728 425.387 774.904 428.434 777.774C431.48 780.613 433.865 784.1 435.589 788.235C437.343 792.37 438.22 797.076 438.22 802.353C438.22 805.963 437.804 809.373 436.973 812.583C436.142 815.761 434.958 818.708 433.419 821.424C431.911 824.109 430.065 826.516 427.88 828.645C425.695 830.774 423.248 832.595 420.54 834.107C417.863 835.588 414.939 836.73 411.77 837.532C408.631 838.304 405.307 838.69 401.799 838.69Z" fill="url(#paint4_linear)"/>
<path d="M493.197 769.951H506.999L484.888 837.764H466.147L444.128 769.951H461.484L474.594 815.545L476.902 825.312H477.825L480.133 815.545L493.197 769.951Z" fill="url(#paint5_linear)"/>
<path d="M533.91 837.764H517.615V769.951H533.91V837.764Z" fill="url(#paint6_linear)"/>
<path d="M550.758 769.951H577.254C583.194 769.951 588.425 770.707 592.949 772.219C597.503 773.731 601.319 775.876 604.397 778.653C607.505 781.4 609.844 784.717 611.413 788.605C613.013 792.493 613.813 796.798 613.813 801.52C613.813 804.359 613.506 807.229 612.89 810.129C612.306 813.03 611.367 815.823 610.074 818.508C608.782 821.192 607.12 823.723 605.089 826.099C603.058 828.444 600.612 830.481 597.75 832.209C594.888 833.937 591.58 835.31 587.825 836.329C584.102 837.316 579.901 837.81 575.223 837.81L550.758 837.764V769.951ZM567.053 827.673H576.978C580.393 827.673 583.348 827.056 585.84 825.821C588.364 824.556 590.441 822.828 592.072 820.637C593.734 818.415 594.965 815.808 595.765 812.814C596.565 809.821 596.965 806.565 596.965 803.047C596.965 795.332 595.134 789.577 591.472 785.782C587.841 781.955 582.655 780.042 575.916 780.042H567.053V827.673Z" fill="url(#paint7_linear)"/>
<path d="M535.587 923.715H519.293V865.993H498.29L500.09 855.902H556.821L555.021 865.993H535.587V923.715Z" fill="url(#paint8_linear)"/>
<path d="M584.286 898.627V923.715H567.992V855.902H592.272C596.673 855.902 600.504 856.38 603.766 857.337C607.028 858.294 609.736 859.59 611.89 861.225C614.075 862.83 615.706 864.697 616.783 866.826C617.86 868.956 618.399 871.193 618.399 873.538C618.399 875.667 617.999 877.689 617.198 879.602C616.398 881.484 615.367 883.228 614.106 884.833C612.844 886.406 611.428 887.857 609.859 889.184C608.32 890.48 606.812 891.622 605.335 892.609L624.261 923.715H605.335L592.872 898.627H584.286ZM584.286 889.23H595.965C596.826 888.767 597.642 888.15 598.411 887.378C599.211 886.607 599.904 885.727 600.488 884.74C601.104 883.722 601.596 882.595 601.966 881.361C602.335 880.127 602.52 878.784 602.52 877.334C602.52 875.729 602.273 874.232 601.781 872.844C601.289 871.455 600.55 870.252 599.565 869.233C598.581 868.215 597.365 867.428 595.919 866.873C594.472 866.286 592.78 865.993 590.841 865.993H584.286V889.23Z" fill="url(#paint9_linear)"/>
<path d="M670.744 908.023H647.757L643.371 923.715H629.754L651.265 855.902H670.929L692.394 923.715H675.176L670.744 908.023ZM668.206 898.627L661.974 876.315L659.666 866.132H658.743L656.481 876.315L650.249 898.627H668.206Z" fill="url(#paint10_linear)"/>
<path d="M754.895 917.466C753.418 918.7 751.74 919.765 749.863 920.66C747.986 921.555 746.016 922.296 743.955 922.882C741.924 923.468 739.846 923.9 737.723 924.178C735.6 924.487 733.569 924.641 731.63 924.641C726.952 924.641 722.629 923.869 718.659 922.326C714.689 920.753 711.242 918.531 708.319 915.661C705.395 912.791 703.103 909.335 701.441 905.292C699.81 901.25 698.995 896.729 698.995 891.73C698.995 887.81 699.487 884.185 700.472 880.852C701.487 877.519 702.872 874.495 704.626 871.779C706.411 869.064 708.519 866.657 710.95 864.558C713.381 862.46 716.028 860.701 718.89 859.281C721.752 857.862 724.767 856.797 727.937 856.087C731.138 855.347 734.384 854.976 737.677 854.976C738.723 854.976 739.939 855.023 741.324 855.115C742.739 855.177 744.216 855.3 745.755 855.486C747.324 855.671 748.925 855.918 750.556 856.226C752.187 856.535 753.787 856.905 755.356 857.337L752.956 868.261L752.033 868.632C749.202 867.274 746.509 866.348 743.955 865.854C741.4 865.33 739.139 865.067 737.169 865.067C733.969 865.067 731.061 865.654 728.445 866.826C725.829 867.968 723.583 869.588 721.705 871.687C719.828 873.785 718.367 876.3 717.32 879.232C716.305 882.163 715.797 885.419 715.797 888.999C715.797 892.64 716.32 895.988 717.366 899.043C718.443 902.067 719.997 904.69 722.029 906.912C724.06 909.103 726.537 910.816 729.46 912.05C732.415 913.254 735.769 913.856 739.523 913.856C742.416 913.856 745.109 913.516 747.601 912.837C750.125 912.158 752.556 911.233 754.895 910.06V917.466Z" fill="url(#paint11_linear)"/>
<path d="M784.899 923.715H768.604V855.902H784.899V923.715ZM812.364 923.715L789.007 889.461L814.58 855.902H829.997L804.655 885.851L832.121 923.715H812.364Z" fill="url(#paint12_linear)"/>
<path d="M843.107 923.715V855.902H887.236L885.436 865.993H859.402V883.999H882.112L880.451 893.396H859.402V913.624H887.698L885.898 923.715H843.107Z" fill="url(#paint13_linear)"/>
<path d="M918.025 898.627V923.715H901.731V855.902H926.011C930.412 855.902 934.243 856.38 937.505 857.337C940.767 858.294 943.475 859.59 945.629 861.225C947.814 862.83 949.445 864.697 950.522 866.826C951.599 868.956 952.138 871.193 952.138 873.538C952.138 875.667 951.738 877.689 950.937 879.602C950.137 881.484 949.106 883.228 947.845 884.833C946.583 886.406 945.167 887.857 943.598 889.184C942.059 890.48 940.551 891.622 939.074 892.609L958 923.715H939.074L926.611 898.627H918.025ZM918.025 889.23H929.704C930.565 888.767 931.381 888.15 932.15 887.378C932.95 886.607 933.643 885.727 934.227 884.74C934.843 883.722 935.335 882.595 935.705 881.361C936.074 880.127 936.258 878.784 936.258 877.334C936.258 875.729 936.012 874.232 935.52 872.844C935.028 871.455 934.289 870.252 933.304 869.233C932.319 868.215 931.104 867.428 929.658 866.873C928.211 866.286 926.519 865.993 924.58 865.993H918.025V889.23Z" fill="url(#paint14_linear)"/>
<defs>
<linearGradient id="paint0_linear" x1="91" y1="213.449" x2="891.21" y2="451.451" gradientUnits="userSpaceOnUse">
<stop stop-color="#0098EE"/>
<stop offset="1" stop-color="#00EEB5"/>
</linearGradient>
<linearGradient id="paint1_linear" x1="1022.73" y1="208" x2="25.7798" y2="941.485" gradientUnits="userSpaceOnUse">
<stop stop-color="#00EEB5"/>
<stop offset="1" stop-color="#0098EE"/>
</linearGradient>
<linearGradient id="paint2_linear" x1="181.391" y1="653.221" x2="958.534" y2="990.391" gradientUnits="userSpaceOnUse">
<stop stop-color="#0098EE"/>
<stop offset="1" stop-color="#01E5BB"/>
</linearGradient>
<linearGradient id="paint3_linear" x1="181.391" y1="653.221" x2="958.534" y2="990.391" gradientUnits="userSpaceOnUse">
<stop stop-color="#0098EE"/>
<stop offset="1" stop-color="#01E5BB"/>
</linearGradient>
<linearGradient id="paint4_linear" x1="181.391" y1="653.221" x2="958.534" y2="990.391" gradientUnits="userSpaceOnUse">
<stop stop-color="#0098EE"/>
<stop offset="1" stop-color="#01E5BB"/>
</linearGradient>
<linearGradient id="paint5_linear" x1="181.391" y1="653.221" x2="958.534" y2="990.391" gradientUnits="userSpaceOnUse">
<stop stop-color="#0098EE"/>
<stop offset="1" stop-color="#01E5BB"/>
</linearGradient>
<linearGradient id="paint6_linear" x1="181.391" y1="653.221" x2="958.534" y2="990.391" gradientUnits="userSpaceOnUse">
<stop stop-color="#0098EE"/>
<stop offset="1" stop-color="#01E5BB"/>
</linearGradient>
<linearGradient id="paint7_linear" x1="181.391" y1="653.221" x2="958.534" y2="990.391" gradientUnits="userSpaceOnUse">
<stop stop-color="#0098EE"/>
<stop offset="1" stop-color="#01E5BB"/>
</linearGradient>
<linearGradient id="paint8_linear" x1="181.391" y1="653.221" x2="958.534" y2="990.391" gradientUnits="userSpaceOnUse">
<stop stop-color="#0098EE"/>
<stop offset="1" stop-color="#01E5BB"/>
</linearGradient>
<linearGradient id="paint9_linear" x1="181.391" y1="653.221" x2="958.534" y2="990.391" gradientUnits="userSpaceOnUse">
<stop stop-color="#0098EE"/>
<stop offset="1" stop-color="#01E5BB"/>
</linearGradient>
<linearGradient id="paint10_linear" x1="181.391" y1="653.221" x2="958.534" y2="990.391" gradientUnits="userSpaceOnUse">
<stop stop-color="#0098EE"/>
<stop offset="1" stop-color="#01E5BB"/>
</linearGradient>
<linearGradient id="paint11_linear" x1="181.391" y1="653.221" x2="958.534" y2="990.391" gradientUnits="userSpaceOnUse">
<stop stop-color="#0098EE"/>
<stop offset="1" stop-color="#01E5BB"/>
</linearGradient>
<linearGradient id="paint12_linear" x1="181.391" y1="653.221" x2="958.534" y2="990.391" gradientUnits="userSpaceOnUse">
<stop stop-color="#0098EE"/>
<stop offset="1" stop-color="#01E5BB"/>
</linearGradient>
<linearGradient id="paint13_linear" x1="181.391" y1="653.221" x2="958.534" y2="990.391" gradientUnits="userSpaceOnUse">
<stop stop-color="#0098EE"/>
<stop offset="1" stop-color="#01E5BB"/>
</linearGradient>
<linearGradient id="paint14_linear" x1="181.391" y1="653.221" x2="958.534" y2="990.391" gradientUnits="userSpaceOnUse">
<stop stop-color="#0098EE"/>
<stop offset="1" stop-color="#01E5BB"/>
</linearGradient>
</defs>
</svg>
