<svg width="1080" height="1080" viewBox="0 0 1080 1080" fill="none" xmlns="http://www.w3.org/2000/svg">
<g clip-path="url(#clip0)">
<path fill-rule="evenodd" clip-rule="evenodd" d="M540 202.974C636.139 36.1227 874.385 16.6499 995.299 172.495L1012.1 194.155C1114.37 325.957 1099.6 513.915 978.014 628.133L599.359 983.838C593.7 989.158 587.516 994.971 581.683 999.464C574.974 1004.63 565.596 1010.61 553.077 1013.07C544.441 1014.76 535.559 1014.76 526.923 1013.07C514.404 1010.61 505.026 1004.63 498.317 999.464C492.486 994.972 486.305 989.162 480.647 983.844L101.986 628.132C-19.6003 513.915 -34.3654 325.958 67.895 194.155L84.7007 172.495C205.615 16.6501 443.861 36.1226 540 202.974ZM757.749 443.245C774.296 427.996 775.347 402.219 760.097 385.673C744.847 369.126 719.071 368.075 702.525 383.325L492.828 576.588L405.234 492.537C388.998 476.957 363.206 477.489 347.626 493.726C332.046 509.962 332.578 535.754 348.815 551.334L464.055 661.914C479.591 676.822 504.045 677.068 519.877 662.476L757.749 443.245Z" fill="#0098EE"/>
</g>
<defs>
<clipPath id="clip0">
<rect width="1080" height="1080" fill="white"/>
</clipPath>
</defs>
</svg>
