<svg width="1080" height="1080" viewBox="0 0 1080 1080" fill="none" xmlns="http://www.w3.org/2000/svg">
<path fill-rule="evenodd" clip-rule="evenodd" d="M540.001 298.29C619.637 160.078 816.988 143.948 917.146 273.042L931.067 290.984C1015.77 400.162 1003.54 555.856 902.828 650.468L589.171 945.116C584.483 949.522 579.361 954.337 574.528 958.059C568.971 962.339 561.203 967.291 550.833 969.326C543.68 970.73 536.322 970.73 529.168 969.326C518.798 967.291 511.03 962.339 505.473 958.059C500.643 954.339 495.522 949.526 490.836 945.121L177.173 650.468C76.4572 555.856 64.2267 400.162 148.934 290.984L162.855 273.042C263.013 143.948 460.364 160.078 540.001 298.29ZM720.373 497.317C734.079 484.685 734.95 463.334 722.318 449.627C709.685 435.921 688.334 435.05 674.628 447.682L500.926 607.772L428.367 538.148C414.918 525.242 393.553 525.683 380.648 539.133C367.743 552.582 368.183 573.947 381.633 586.852L477.092 678.451C489.961 690.8 510.217 691.004 523.332 678.916L720.373 497.317Z" fill="#F2F2F2"/>
</svg>
