<svg width="1080" height="1080" viewBox="0 0 1080 1080" fill="none" xmlns="http://www.w3.org/2000/svg">
<g clip-path="url(#clip0)">
<path d="M1066.03 226.324C1045.68 205.975 873.827 34.1176 853.659 13.9499C811.149 -28.5709 746.75 35.7355 789.31 78.2985L815.117 104.105L691.022 228.195L583.419 120.594C540.908 78.0728 476.509 142.379 519.07 184.942L568.691 234.563L508.607 294.647L611.566 397.605C654.076 440.115 589.785 504.529 547.217 461.954L444.259 358.995L407.794 395.46L510.753 498.419C553.261 540.927 488.971 605.343 446.404 562.767L343.446 459.809L306.983 496.273L409.941 599.232C452.45 641.74 388.16 706.156 345.593 663.58L242.634 560.622L150.377 652.88C132.607 670.649 132.607 699.459 150.377 717.228L224.39 791.242L13.9464 1001.68C-28.5617 1044.19 35.7278 1108.61 78.295 1066.03L288.733 855.595L362.746 929.609C380.514 947.378 409.326 947.378 427.095 929.609L845.416 511.29L895.036 560.911C937.199 603.079 1002.49 539.665 959.385 496.562C945.891 483.073 880.275 417.452 851.782 388.959L975.876 264.864L1001.68 290.67C1044.19 333.185 1108.6 268.897 1066.03 226.324ZM787.435 324.61C775.832 313.007 766.974 304.149 755.371 292.546L879.461 168.455L911.526 200.52L787.435 324.61Z" fill="url(#paint0_linear)"/>
</g>
<defs>
<linearGradient id="paint0_linear" x1="539.999" y1="-0.000610352" x2="539.999" y2="1080" gradientUnits="userSpaceOnUse">
<stop stop-color="#0199EE"/>
<stop offset="1" stop-color="#01E5BB"/>
</linearGradient>
<clipPath id="clip0">
<rect width="1080" height="1080" fill="white"/>
</clipPath>
</defs>
</svg>
